<svg width="1363" height="163" viewBox="0 0 1363 163" fill="none" xmlns="http://www.w3.org/2000/svg">
<path d="M0 15C0 6.71573 6.71573 0 15 0H37V163H15C6.71573 163 0 156.284 0 148V15Z" fill="#FED6BB"/>
<rect width="1097" height="163" transform="translate(37)" fill="#F0F0F0"/>
<path d="M101.906 53.9219L94.3945 51.2383V48.0859L104.602 52.375V54.6367L101.906 53.9219ZM94.3945 56.1719L101.918 53.4297L104.602 52.7852V55.0352L94.3945 59.3242V56.1719ZM116.414 43.9375V61H112.898V43.9375H116.414ZM123.211 51.2266V53.9688H115.453V51.2266H123.211ZM124.031 43.9375V46.6914H115.453V43.9375H124.031ZM133.102 57.9648V48.3203H136.477V61H133.301L133.102 57.9648ZM133.477 55.3633L134.473 55.3398C134.473 56.1836 134.375 56.9688 134.18 57.6953C133.984 58.4141 133.691 59.0391 133.301 59.5703C132.91 60.0938 132.418 60.5039 131.824 60.8008C131.23 61.0898 130.531 61.2344 129.727 61.2344C129.109 61.2344 128.539 61.1484 128.016 60.9766C127.5 60.7969 127.055 60.5195 126.68 60.1445C126.312 59.7617 126.023 59.2734 125.812 58.6797C125.609 58.0781 125.508 57.3555 125.508 56.5117V48.3203H128.883V56.5352C128.883 56.9102 128.926 57.2266 129.012 57.4844C129.105 57.7422 129.234 57.9531 129.398 58.1172C129.562 58.2812 129.754 58.3984 129.973 58.4688C130.199 58.5391 130.449 58.5742 130.723 58.5742C131.418 58.5742 131.965 58.4336 132.363 58.1523C132.77 57.8711 133.055 57.4883 133.219 57.0039C133.391 56.5117 133.477 55.9648 133.477 55.3633ZM142.43 51.0859V61H139.055V48.3203H142.23L142.43 51.0859ZM146.25 48.2383L146.191 51.3672C146.027 51.3438 145.828 51.3242 145.594 51.3086C145.367 51.2852 145.16 51.2734 144.973 51.2734C144.496 51.2734 144.082 51.3359 143.73 51.4609C143.387 51.5781 143.098 51.7539 142.863 51.9883C142.637 52.2227 142.465 52.5078 142.348 52.8438C142.238 53.1797 142.176 53.5625 142.16 53.9922L141.48 53.7812C141.48 52.9609 141.562 52.207 141.727 51.5195C141.891 50.8242 142.129 50.2188 142.441 49.7031C142.762 49.1875 143.152 48.7891 143.613 48.5078C144.074 48.2266 144.602 48.0859 145.195 48.0859C145.383 48.0859 145.574 48.1016 145.77 48.1328C145.965 48.1562 146.125 48.1914 146.25 48.2383ZM151.148 51.0273V61H147.773V48.3203H150.938L151.148 51.0273ZM150.656 54.2148H149.742C149.742 53.2773 149.863 52.4336 150.105 51.6836C150.348 50.9258 150.688 50.2812 151.125 49.75C151.562 49.2109 152.082 48.8008 152.684 48.5195C153.293 48.2305 153.973 48.0859 154.723 48.0859C155.316 48.0859 155.859 48.1719 156.352 48.3438C156.844 48.5156 157.266 48.7891 157.617 49.1641C157.977 49.5391 158.25 50.0352 158.438 50.6523C158.633 51.2695 158.73 52.0234 158.73 52.9141V61H155.332V52.9023C155.332 52.3398 155.254 51.9023 155.098 51.5898C154.941 51.2773 154.711 51.0586 154.406 50.9336C154.109 50.8008 153.742 50.7344 153.305 50.7344C152.852 50.7344 152.457 50.8242 152.121 51.0039C151.793 51.1836 151.52 51.4336 151.301 51.7539C151.09 52.0664 150.93 52.4336 150.82 52.8555C150.711 53.2773 150.656 53.7305 150.656 54.2148ZM164.859 48.3203V61H161.473V48.3203H164.859ZM161.262 45.0156C161.262 44.5234 161.434 44.1172 161.777 43.7969C162.121 43.4766 162.582 43.3164 163.16 43.3164C163.73 43.3164 164.188 43.4766 164.531 43.7969C164.883 44.1172 165.059 44.5234 165.059 45.0156C165.059 45.5078 164.883 45.9141 164.531 46.2344C164.188 46.5547 163.73 46.7148 163.16 46.7148C162.582 46.7148 162.121 46.5547 161.777 46.2344C161.434 45.9141 161.262 45.5078 161.262 45.0156ZM173.859 48.3203V50.7109H166.477V48.3203H173.859ZM168.305 45.1914H171.68V57.1797C171.68 57.5469 171.727 57.8281 171.82 58.0234C171.922 58.2188 172.07 58.3555 172.266 58.4336C172.461 58.5039 172.707 58.5391 173.004 58.5391C173.215 58.5391 173.402 58.5312 173.566 58.5156C173.738 58.4922 173.883 58.4688 174 58.4453L174.012 60.9297C173.723 61.0234 173.41 61.0977 173.074 61.1523C172.738 61.207 172.367 61.2344 171.961 61.2344C171.219 61.2344 170.57 61.1133 170.016 60.8711C169.469 60.6211 169.047 60.2227 168.75 59.6758C168.453 59.1289 168.305 58.4102 168.305 57.5195V45.1914ZM183.281 57.9648V48.3203H186.656V61H183.48L183.281 57.9648ZM183.656 55.3633L184.652 55.3398C184.652 56.1836 184.555 56.9688 184.359 57.6953C184.164 58.4141 183.871 59.0391 183.48 59.5703C183.09 60.0938 182.598 60.5039 182.004 60.8008C181.41 61.0898 180.711 61.2344 179.906 61.2344C179.289 61.2344 178.719 61.1484 178.195 60.9766C177.68 60.7969 177.234 60.5195 176.859 60.1445C176.492 59.7617 176.203 59.2734 175.992 58.6797C175.789 58.0781 175.688 57.3555 175.688 56.5117V48.3203H179.062V56.5352C179.062 56.9102 179.105 57.2266 179.191 57.4844C179.285 57.7422 179.414 57.9531 179.578 58.1172C179.742 58.2812 179.934 58.3984 180.152 58.4688C180.379 58.5391 180.629 58.5742 180.902 58.5742C181.598 58.5742 182.145 58.4336 182.543 58.1523C182.949 57.8711 183.234 57.4883 183.398 57.0039C183.57 56.5117 183.656 55.9648 183.656 55.3633ZM192.609 51.0859V61H189.234V48.3203H192.41L192.609 51.0859ZM196.43 48.2383L196.371 51.3672C196.207 51.3438 196.008 51.3242 195.773 51.3086C195.547 51.2852 195.34 51.2734 195.152 51.2734C194.676 51.2734 194.262 51.3359 193.91 51.4609C193.566 51.5781 193.277 51.7539 193.043 51.9883C192.816 52.2227 192.645 52.5078 192.527 52.8438C192.418 53.1797 192.355 53.5625 192.34 53.9922L191.66 53.7812C191.66 52.9609 191.742 52.207 191.906 51.5195C192.07 50.8242 192.309 50.2188 192.621 49.7031C192.941 49.1875 193.332 48.7891 193.793 48.5078C194.254 48.2266 194.781 48.0859 195.375 48.0859C195.562 48.0859 195.754 48.1016 195.949 48.1328C196.145 48.1562 196.305 48.1914 196.43 48.2383ZM203.625 61.2344C202.641 61.2344 201.758 61.0781 200.977 60.7656C200.195 60.4453 199.531 60.0039 198.984 59.4414C198.445 58.8789 198.031 58.2266 197.742 57.4844C197.453 56.7344 197.309 55.9375 197.309 55.0938V54.625C197.309 53.6641 197.445 52.7852 197.719 51.9883C197.992 51.1914 198.383 50.5 198.891 49.9141C199.406 49.3281 200.031 48.8789 200.766 48.5664C201.5 48.2461 202.328 48.0859 203.25 48.0859C204.148 48.0859 204.945 48.2344 205.641 48.5312C206.336 48.8281 206.918 49.25 207.387 49.7969C207.863 50.3438 208.223 51 208.465 51.7656C208.707 52.5234 208.828 53.3672 208.828 54.2969V55.7031H198.75V53.4531H205.512V53.1953C205.512 52.7266 205.426 52.3086 205.254 51.9414C205.09 51.5664 204.84 51.2695 204.504 51.0508C204.168 50.832 203.738 50.7227 203.215 50.7227C202.77 50.7227 202.387 50.8203 202.066 51.0156C201.746 51.2109 201.484 51.4844 201.281 51.8359C201.086 52.1875 200.938 52.6016 200.836 53.0781C200.742 53.5469 200.695 54.0625 200.695 54.625V55.0938C200.695 55.6016 200.766 56.0703 200.906 56.5C201.055 56.9297 201.262 57.3008 201.527 57.6133C201.801 57.9258 202.129 58.168 202.512 58.3398C202.902 58.5117 203.344 58.5977 203.836 58.5977C204.445 58.5977 205.012 58.4805 205.535 58.2461C206.066 58.0039 206.523 57.6406 206.906 57.1562L208.547 58.9375C208.281 59.3203 207.918 59.6875 207.457 60.0391C207.004 60.3906 206.457 60.6797 205.816 60.9062C205.176 61.125 204.445 61.2344 203.625 61.2344ZM225.82 56.5352C225.82 56.2305 225.773 55.957 225.68 55.7148C225.594 55.4648 225.43 55.2383 225.188 55.0352C224.945 54.8242 224.605 54.6172 224.168 54.4141C223.73 54.2109 223.164 54 222.469 53.7812C221.695 53.5312 220.961 53.25 220.266 52.9375C219.578 52.625 218.969 52.2617 218.438 51.8477C217.914 51.4258 217.5 50.9375 217.195 50.3828C216.898 49.8281 216.75 49.1836 216.75 48.4492C216.75 47.7383 216.906 47.0938 217.219 46.5156C217.531 45.9297 217.969 45.4297 218.531 45.0156C219.094 44.5938 219.758 44.2695 220.523 44.043C221.297 43.8164 222.145 43.7031 223.066 43.7031C224.324 43.7031 225.422 43.9297 226.359 44.3828C227.297 44.8359 228.023 45.457 228.539 46.2461C229.062 47.0352 229.324 47.9375 229.324 48.9531H225.832C225.832 48.4531 225.727 48.0156 225.516 47.6406C225.312 47.2578 225 46.957 224.578 46.7383C224.164 46.5195 223.641 46.4102 223.008 46.4102C222.398 46.4102 221.891 46.5039 221.484 46.6914C221.078 46.8711 220.773 47.1172 220.57 47.4297C220.367 47.7344 220.266 48.0781 220.266 48.4609C220.266 48.75 220.336 49.0117 220.477 49.2461C220.625 49.4805 220.844 49.6992 221.133 49.9023C221.422 50.1055 221.777 50.2969 222.199 50.4766C222.621 50.6562 223.109 50.832 223.664 51.0039C224.594 51.2852 225.41 51.6016 226.113 51.9531C226.824 52.3047 227.418 52.6992 227.895 53.1367C228.371 53.5742 228.73 54.0703 228.973 54.625C229.215 55.1797 229.336 55.8086 229.336 56.5117C229.336 57.2539 229.191 57.918 228.902 58.5039C228.613 59.0898 228.195 59.5859 227.648 59.9922C227.102 60.3984 226.449 60.707 225.691 60.918C224.934 61.1289 224.086 61.2344 223.148 61.2344C222.305 61.2344 221.473 61.125 220.652 60.9062C219.832 60.6797 219.086 60.3398 218.414 59.8867C217.75 59.4336 217.219 58.8555 216.82 58.1523C216.422 57.4492 216.223 56.6172 216.223 55.6562H219.75C219.75 56.1875 219.832 56.6367 219.996 57.0039C220.16 57.3711 220.391 57.668 220.688 57.8945C220.992 58.1211 221.352 58.2852 221.766 58.3867C222.188 58.4883 222.648 58.5391 223.148 58.5391C223.758 58.5391 224.258 58.4531 224.648 58.2812C225.047 58.1094 225.34 57.8711 225.527 57.5664C225.723 57.2617 225.82 56.918 225.82 56.5352ZM237.727 48.3203V50.7109H230.344V48.3203H237.727ZM232.172 45.1914H235.547V57.1797C235.547 57.5469 235.594 57.8281 235.688 58.0234C235.789 58.2188 235.938 58.3555 236.133 58.4336C236.328 58.5039 236.574 58.5391 236.871 58.5391C237.082 58.5391 237.27 58.5312 237.434 58.5156C237.605 58.4922 237.75 58.4688 237.867 58.4453L237.879 60.9297C237.59 61.0234 237.277 61.0977 236.941 61.1523C236.605 61.207 236.234 61.2344 235.828 61.2344C235.086 61.2344 234.438 61.1133 233.883 60.8711C233.336 60.6211 232.914 60.2227 232.617 59.6758C232.32 59.1289 232.172 58.4102 232.172 57.5195V45.1914ZM238.805 54.7891V54.543C238.805 53.6133 238.938 52.7578 239.203 51.9766C239.469 51.1875 239.855 50.5039 240.363 49.9258C240.871 49.3477 241.496 48.8984 242.238 48.5781C242.98 48.25 243.832 48.0859 244.793 48.0859C245.754 48.0859 246.609 48.25 247.359 48.5781C248.109 48.8984 248.738 49.3477 249.246 49.9258C249.762 50.5039 250.152 51.1875 250.418 51.9766C250.684 52.7578 250.816 53.6133 250.816 54.543V54.7891C250.816 55.7109 250.684 56.5664 250.418 57.3555C250.152 58.1367 249.762 58.8203 249.246 59.4062C248.738 59.9844 248.113 60.4336 247.371 60.7539C246.629 61.0742 245.777 61.2344 244.816 61.2344C243.855 61.2344 243 61.0742 242.25 60.7539C241.508 60.4336 240.879 59.9844 240.363 59.4062C239.855 58.8203 239.469 58.1367 239.203 57.3555C238.938 56.5664 238.805 55.7109 238.805 54.7891ZM242.18 54.543V54.7891C242.18 55.3203 242.227 55.8164 242.32 56.2773C242.414 56.7383 242.562 57.1445 242.766 57.4961C242.977 57.8398 243.25 58.1094 243.586 58.3047C243.922 58.5 244.332 58.5977 244.816 58.5977C245.285 58.5977 245.688 58.5 246.023 58.3047C246.359 58.1094 246.629 57.8398 246.832 57.4961C247.035 57.1445 247.184 56.7383 247.277 56.2773C247.379 55.8164 247.43 55.3203 247.43 54.7891V54.543C247.43 54.0273 247.379 53.543 247.277 53.0898C247.184 52.6289 247.031 52.2227 246.82 51.8711C246.617 51.5117 246.348 51.2305 246.012 51.0273C245.676 50.8242 245.27 50.7227 244.793 50.7227C244.316 50.7227 243.91 50.8242 243.574 51.0273C243.246 51.2305 242.977 51.5117 242.766 51.8711C242.562 52.2227 242.414 52.6289 242.32 53.0898C242.227 53.543 242.18 54.0273 242.18 54.543ZM256.266 51.0859V61H252.891V48.3203H256.066L256.266 51.0859ZM260.086 48.2383L260.027 51.3672C259.863 51.3438 259.664 51.3242 259.43 51.3086C259.203 51.2852 258.996 51.2734 258.809 51.2734C258.332 51.2734 257.918 51.3359 257.566 51.4609C257.223 51.5781 256.934 51.7539 256.699 51.9883C256.473 52.2227 256.301 52.5078 256.184 52.8438C256.074 53.1797 256.012 53.5625 255.996 53.9922L255.316 53.7812C255.316 52.9609 255.398 52.207 255.562 51.5195C255.727 50.8242 255.965 50.2188 256.277 49.7031C256.598 49.1875 256.988 48.7891 257.449 48.5078C257.91 48.2266 258.438 48.0859 259.031 48.0859C259.219 48.0859 259.41 48.1016 259.605 48.1328C259.801 48.1562 259.961 48.1914 260.086 48.2383ZM267.281 61.2344C266.297 61.2344 265.414 61.0781 264.633 60.7656C263.852 60.4453 263.188 60.0039 262.641 59.4414C262.102 58.8789 261.688 58.2266 261.398 57.4844C261.109 56.7344 260.965 55.9375 260.965 55.0938V54.625C260.965 53.6641 261.102 52.7852 261.375 51.9883C261.648 51.1914 262.039 50.5 262.547 49.9141C263.062 49.3281 263.688 48.8789 264.422 48.5664C265.156 48.2461 265.984 48.0859 266.906 48.0859C267.805 48.0859 268.602 48.2344 269.297 48.5312C269.992 48.8281 270.574 49.25 271.043 49.7969C271.52 50.3438 271.879 51 272.121 51.7656C272.363 52.5234 272.484 53.3672 272.484 54.2969V55.7031H262.406V53.4531H269.168V53.1953C269.168 52.7266 269.082 52.3086 268.91 51.9414C268.746 51.5664 268.496 51.2695 268.16 51.0508C267.824 50.832 267.395 50.7227 266.871 50.7227C266.426 50.7227 266.043 50.8203 265.723 51.0156C265.402 51.2109 265.141 51.4844 264.938 51.8359C264.742 52.1875 264.594 52.6016 264.492 53.0781C264.398 53.5469 264.352 54.0625 264.352 54.625V55.0938C264.352 55.6016 264.422 56.0703 264.562 56.5C264.711 56.9297 264.918 57.3008 265.184 57.6133C265.457 57.9258 265.785 58.168 266.168 58.3398C266.559 58.5117 267 58.5977 267.492 58.5977C268.102 58.5977 268.668 58.4805 269.191 58.2461C269.723 58.0039 270.18 57.6406 270.562 57.1562L272.203 58.9375C271.938 59.3203 271.574 59.6875 271.113 60.0391C270.66 60.3906 270.113 60.6797 269.473 60.9062C268.832 61.125 268.102 61.2344 267.281 61.2344Z" fill="#888888"/>
<path d="M118.594 98.4219V104.75H101.086V98.4219H118.594ZM103.828 84.875V119H95.6016V84.875H103.828ZM124.125 84.875V119H115.922V84.875H124.125ZM127.992 106.578V106.086C127.992 104.227 128.258 102.516 128.789 100.953C129.32 99.375 130.102 98.0078 131.133 96.8516C132.164 95.6953 133.438 94.7969 134.953 94.1562C136.469 93.5 138.219 93.1719 140.203 93.1719C142.203 93.1719 143.961 93.5 145.477 94.1562C147.008 94.7969 148.289 95.6953 149.32 96.8516C150.352 98.0078 151.133 99.375 151.664 100.953C152.195 102.516 152.461 104.227 152.461 106.086V106.578C152.461 108.422 152.195 110.133 151.664 111.711C151.133 113.273 150.352 114.641 149.32 115.812C148.289 116.969 147.016 117.867 145.5 118.508C143.984 119.148 142.234 119.469 140.25 119.469C138.266 119.469 136.508 119.148 134.977 118.508C133.445 117.867 132.164 116.969 131.133 115.812C130.102 114.641 129.32 113.273 128.789 111.711C128.258 110.133 127.992 108.422 127.992 106.578ZM135.891 106.086V106.578C135.891 107.531 135.961 108.422 136.102 109.25C136.242 110.078 136.477 110.805 136.805 111.43C137.133 112.039 137.578 112.516 138.141 112.859C138.703 113.203 139.406 113.375 140.25 113.375C141.078 113.375 141.766 113.203 142.312 112.859C142.875 112.516 143.32 112.039 143.648 111.43C143.977 110.805 144.211 110.078 144.352 109.25C144.492 108.422 144.562 107.531 144.562 106.578V106.086C144.562 105.164 144.492 104.297 144.352 103.484C144.211 102.656 143.977 101.93 143.648 101.305C143.32 100.664 142.875 100.164 142.312 99.8047C141.75 99.4453 141.047 99.2656 140.203 99.2656C139.375 99.2656 138.68 99.4453 138.117 99.8047C137.57 100.164 137.133 100.664 136.805 101.305C136.477 101.93 136.242 102.656 136.102 103.484C135.961 104.297 135.891 105.164 135.891 106.086ZM163.688 111.453L168.375 93.6406H173.32L171.562 102.57L166.922 119H162.961L163.688 111.453ZM161.836 93.6406L164.742 111.312L165.07 119H160.266L154.266 93.6406H161.836ZM177.492 110.938L180.422 93.6406H187.992L182.039 119H177.234L177.492 110.938ZM173.883 93.6406L178.617 111.406L179.344 119H175.336L170.789 102.617L169.102 93.6406H173.883ZM218.297 84.875V119H210.07V84.875H218.297ZM228.562 84.875V91.2266H200.039V84.875H228.562ZM225.773 106.578V106.086C225.773 104.227 226.039 102.516 226.57 100.953C227.102 99.375 227.883 98.0078 228.914 96.8516C229.945 95.6953 231.219 94.7969 232.734 94.1562C234.25 93.5 236 93.1719 237.984 93.1719C239.984 93.1719 241.742 93.5 243.258 94.1562C244.789 94.7969 246.07 95.6953 247.102 96.8516C248.133 98.0078 248.914 99.375 249.445 100.953C249.977 102.516 250.242 104.227 250.242 106.086V106.578C250.242 108.422 249.977 110.133 249.445 111.711C248.914 113.273 248.133 114.641 247.102 115.812C246.07 116.969 244.797 117.867 243.281 118.508C241.766 119.148 240.016 119.469 238.031 119.469C236.047 119.469 234.289 119.148 232.758 118.508C231.227 117.867 229.945 116.969 228.914 115.812C227.883 114.641 227.102 113.273 226.57 111.711C226.039 110.133 225.773 108.422 225.773 106.578ZM233.672 106.086V106.578C233.672 107.531 233.742 108.422 233.883 109.25C234.023 110.078 234.258 110.805 234.586 111.43C234.914 112.039 235.359 112.516 235.922 112.859C236.484 113.203 237.188 113.375 238.031 113.375C238.859 113.375 239.547 113.203 240.094 112.859C240.656 112.516 241.102 112.039 241.43 111.43C241.758 110.805 241.992 110.078 242.133 109.25C242.273 108.422 242.344 107.531 242.344 106.578V106.086C242.344 105.164 242.273 104.297 242.133 103.484C241.992 102.656 241.758 101.93 241.43 101.305C241.102 100.664 240.656 100.164 240.094 99.8047C239.531 99.4453 238.828 99.2656 237.984 99.2656C237.156 99.2656 236.461 99.4453 235.898 99.8047C235.352 100.164 234.914 100.664 234.586 101.305C234.258 101.93 234.023 102.656 233.883 103.484C233.742 104.297 233.672 105.164 233.672 106.086ZM266.086 84.875H279.516C282.141 84.875 284.422 85.2656 286.359 86.0469C288.297 86.8281 289.789 87.9844 290.836 89.5156C291.898 91.0469 292.43 92.9375 292.43 95.1875C292.43 97.1406 292.125 98.7734 291.516 100.086C290.906 101.398 290.055 102.484 288.961 103.344C287.883 104.188 286.625 104.883 285.188 105.43L282.492 106.953H271.219L271.172 100.602H279.516C280.562 100.602 281.43 100.414 282.117 100.039C282.805 99.6641 283.32 99.1328 283.664 98.4453C284.023 97.7422 284.203 96.9062 284.203 95.9375C284.203 94.9531 284.023 94.1094 283.664 93.4062C283.305 92.7031 282.773 92.1641 282.07 91.7891C281.383 91.4141 280.531 91.2266 279.516 91.2266H274.312V119H266.086V84.875ZM284.766 119L277.219 103.906L285.938 103.859L293.578 118.648V119H284.766ZM311.836 112.836V93.6406H319.758V119H312.352L311.836 112.836ZM312.586 107.68L314.648 107.633C314.648 109.336 314.445 110.914 314.039 112.367C313.633 113.805 313.031 115.055 312.234 116.117C311.453 117.18 310.484 118.008 309.328 118.602C308.188 119.18 306.867 119.469 305.367 119.469C304.117 119.469 302.969 119.297 301.922 118.953C300.891 118.594 300 118.039 299.25 117.289C298.5 116.523 297.914 115.547 297.492 114.359C297.086 113.156 296.883 111.719 296.883 110.047V93.6406H304.781V110.094C304.781 110.656 304.852 111.141 304.992 111.547C305.133 111.953 305.336 112.297 305.602 112.578C305.867 112.844 306.195 113.047 306.586 113.188C306.992 113.312 307.453 113.375 307.969 113.375C309.156 113.375 310.086 113.125 310.758 112.625C311.43 112.125 311.898 111.445 312.164 110.586C312.445 109.727 312.586 108.758 312.586 107.68ZM331.875 99.0547V119H323.977V93.6406H331.383L331.875 99.0547ZM330.938 105.453L329.086 105.5C329.086 103.562 329.32 101.836 329.789 100.32C330.258 98.7891 330.922 97.4922 331.781 96.4297C332.641 95.3672 333.664 94.5625 334.852 94.0156C336.055 93.4531 337.391 93.1719 338.859 93.1719C340.031 93.1719 341.102 93.3438 342.07 93.6875C343.055 94.0312 343.898 94.5859 344.602 95.3516C345.32 96.1172 345.867 97.1328 346.242 98.3984C346.633 99.6484 346.828 101.195 346.828 103.039V119H338.883V103.016C338.883 102 338.742 101.227 338.461 100.695C338.18 100.148 337.773 99.7734 337.242 99.5703C336.711 99.3672 336.062 99.2656 335.297 99.2656C334.484 99.2656 333.797 99.4219 333.234 99.7344C332.672 100.047 332.219 100.484 331.875 101.047C331.547 101.594 331.305 102.242 331.148 102.992C331.008 103.742 330.938 104.562 330.938 105.453ZM363.773 108.195H357.047C357.047 106.82 357.141 105.609 357.328 104.562C357.531 103.5 357.875 102.547 358.359 101.703C358.844 100.859 359.5 100.078 360.328 99.3594C361.062 98.75 361.695 98.1641 362.227 97.6016C362.758 97.0391 363.164 96.4688 363.445 95.8906C363.727 95.3125 363.867 94.6953 363.867 94.0391C363.867 93.2266 363.75 92.5625 363.516 92.0469C363.297 91.5312 362.961 91.1484 362.508 90.8984C362.07 90.6328 361.516 90.5 360.844 90.5C360.297 90.5 359.781 90.6328 359.297 90.8984C358.828 91.1641 358.445 91.5781 358.148 92.1406C357.852 92.6875 357.688 93.4141 357.656 94.3203H349.711C349.758 91.9922 350.273 90.1016 351.258 88.6484C352.258 87.1797 353.586 86.1094 355.242 85.4375C356.914 84.75 358.781 84.4062 360.844 84.4062C363.125 84.4062 365.086 84.7578 366.727 85.4609C368.367 86.1641 369.625 87.2109 370.5 88.6016C371.375 89.9766 371.812 91.6719 371.812 93.6875C371.812 95.0312 371.555 96.2031 371.039 97.2031C370.539 98.1875 369.859 99.1094 369 99.9688C368.156 100.812 367.211 101.719 366.164 102.688C365.258 103.484 364.641 104.297 364.312 105.125C363.984 105.938 363.805 106.961 363.773 108.195ZM356.086 115.32C356.086 114.195 356.492 113.258 357.305 112.508C358.117 111.742 359.172 111.359 360.469 111.359C361.766 111.359 362.82 111.742 363.633 112.508C364.445 113.258 364.852 114.195 364.852 115.32C364.852 116.445 364.445 117.391 363.633 118.156C362.82 118.906 361.766 119.281 360.469 119.281C359.172 119.281 358.117 118.906 357.305 118.156C356.492 117.391 356.086 116.445 356.086 115.32Z" fill="black"/>
<path d="M1134 0H1348C1356.28 0 1363 6.71573 1363 15V148C1363 156.284 1356.28 163 1348 163H1134V0Z" fill="#F8BC93"/>
<path d="M1260.62 78.8847C1263.81 78.8847 1266.93 79.805 1269.59 81.5293C1272.25 83.2536 1274.32 85.7044 1275.54 88.5718C1276.76 91.4391 1277.08 94.5943 1276.46 97.6383C1275.84 100.682 1274.3 103.478 1272.04 105.673C1269.78 107.868 1266.9 109.362 1263.77 109.968C1260.63 110.573 1257.39 110.262 1254.43 109.075C1251.48 107.887 1248.96 105.876 1247.18 103.295C1245.41 100.714 1244.46 97.6806 1244.46 94.5769C1244.46 90.4151 1246.16 86.4237 1249.19 83.4808C1252.22 80.538 1256.33 78.8847 1260.62 78.8847ZM1260.62 73.6539C1256.36 73.6539 1252.19 74.881 1248.65 77.1801C1245.11 79.4791 1242.35 82.7469 1240.72 86.57C1239.09 90.3932 1238.66 94.6001 1239.49 98.6588C1240.32 102.717 1242.37 106.446 1245.39 109.372C1248.4 112.298 1252.24 114.291 1256.41 115.098C1260.59 115.905 1264.92 115.491 1268.86 113.907C1272.79 112.324 1276.16 109.642 1278.52 106.201C1280.89 102.76 1282.15 98.7151 1282.15 94.5769C1282.15 89.0278 1279.88 83.706 1275.85 79.7821C1271.81 75.8583 1266.33 73.6539 1260.62 73.6539Z" fill="white"/>
<path d="M1274.08 47.5H1220.23C1218.8 47.5 1217.43 48.0511 1216.42 49.0321C1215.41 50.013 1214.85 51.3435 1214.85 52.7307V105.038C1214.85 106.426 1215.41 107.756 1216.42 108.737C1217.43 109.718 1218.8 110.269 1220.23 110.269H1231V105.038H1220.23V68.423H1279.46V52.7307C1279.46 51.3435 1278.89 50.013 1277.88 49.0321C1276.87 48.0511 1275.5 47.5 1274.08 47.5ZM1220.23 63.1922V52.7307H1274.08V63.1922H1220.23Z" fill="white"/>
<path d="M1255.23 86.731V102.423L1268.69 94.5771L1255.23 86.731Z" fill="white"/>
</svg>
