<svg width="1363" height="163" viewBox="0 0 1363 163" fill="none" xmlns="http://www.w3.org/2000/svg">
<path d="M0 15C0 6.71573 6.71573 0 15 0H37V163H15C6.71573 163 0 156.284 0 148V15Z" fill="#FED6BB"/>
<rect width="1097" height="163" transform="translate(37)" fill="#F0F0F0"/>
<path d="M101.906 53.9219L94.3945 51.2383V48.0859L104.602 52.375V54.6367L101.906 53.9219ZM94.3945 56.1719L101.918 53.4297L104.602 52.7852V55.0352L94.3945 59.3242V56.1719ZM116.414 43.9375V61H112.898V43.9375H116.414ZM123.211 51.2266V53.9688H115.453V51.2266H123.211ZM124.031 43.9375V46.6914H115.453V43.9375H124.031ZM133.102 57.9648V48.3203H136.477V61H133.301L133.102 57.9648ZM133.477 55.3633L134.473 55.3398C134.473 56.1836 134.375 56.9688 134.18 57.6953C133.984 58.4141 133.691 59.0391 133.301 59.5703C132.91 60.0938 132.418 60.5039 131.824 60.8008C131.23 61.0898 130.531 61.2344 129.727 61.2344C129.109 61.2344 128.539 61.1484 128.016 60.9766C127.5 60.7969 127.055 60.5195 126.68 60.1445C126.312 59.7617 126.023 59.2734 125.812 58.6797C125.609 58.0781 125.508 57.3555 125.508 56.5117V48.3203H128.883V56.5352C128.883 56.9102 128.926 57.2266 129.012 57.4844C129.105 57.7422 129.234 57.9531 129.398 58.1172C129.562 58.2812 129.754 58.3984 129.973 58.4688C130.199 58.5391 130.449 58.5742 130.723 58.5742C131.418 58.5742 131.965 58.4336 132.363 58.1523C132.77 57.8711 133.055 57.4883 133.219 57.0039C133.391 56.5117 133.477 55.9648 133.477 55.3633ZM142.43 51.0859V61H139.055V48.3203H142.23L142.43 51.0859ZM146.25 48.2383L146.191 51.3672C146.027 51.3438 145.828 51.3242 145.594 51.3086C145.367 51.2852 145.16 51.2734 144.973 51.2734C144.496 51.2734 144.082 51.3359 143.73 51.4609C143.387 51.5781 143.098 51.7539 142.863 51.9883C142.637 52.2227 142.465 52.5078 142.348 52.8438C142.238 53.1797 142.176 53.5625 142.16 53.9922L141.48 53.7812C141.48 52.9609 141.562 52.207 141.727 51.5195C141.891 50.8242 142.129 50.2188 142.441 49.7031C142.762 49.1875 143.152 48.7891 143.613 48.5078C144.074 48.2266 144.602 48.0859 145.195 48.0859C145.383 48.0859 145.574 48.1016 145.77 48.1328C145.965 48.1562 146.125 48.1914 146.25 48.2383ZM151.148 51.0273V61H147.773V48.3203H150.938L151.148 51.0273ZM150.656 54.2148H149.742C149.742 53.2773 149.863 52.4336 150.105 51.6836C150.348 50.9258 150.688 50.2812 151.125 49.75C151.562 49.2109 152.082 48.8008 152.684 48.5195C153.293 48.2305 153.973 48.0859 154.723 48.0859C155.316 48.0859 155.859 48.1719 156.352 48.3438C156.844 48.5156 157.266 48.7891 157.617 49.1641C157.977 49.5391 158.25 50.0352 158.438 50.6523C158.633 51.2695 158.73 52.0234 158.73 52.9141V61H155.332V52.9023C155.332 52.3398 155.254 51.9023 155.098 51.5898C154.941 51.2773 154.711 51.0586 154.406 50.9336C154.109 50.8008 153.742 50.7344 153.305 50.7344C152.852 50.7344 152.457 50.8242 152.121 51.0039C151.793 51.1836 151.52 51.4336 151.301 51.7539C151.09 52.0664 150.93 52.4336 150.82 52.8555C150.711 53.2773 150.656 53.7305 150.656 54.2148ZM164.859 48.3203V61H161.473V48.3203H164.859ZM161.262 45.0156C161.262 44.5234 161.434 44.1172 161.777 43.7969C162.121 43.4766 162.582 43.3164 163.16 43.3164C163.73 43.3164 164.188 43.4766 164.531 43.7969C164.883 44.1172 165.059 44.5234 165.059 45.0156C165.059 45.5078 164.883 45.9141 164.531 46.2344C164.188 46.5547 163.73 46.7148 163.16 46.7148C162.582 46.7148 162.121 46.5547 161.777 46.2344C161.434 45.9141 161.262 45.5078 161.262 45.0156ZM173.859 48.3203V50.7109H166.477V48.3203H173.859ZM168.305 45.1914H171.68V57.1797C171.68 57.5469 171.727 57.8281 171.82 58.0234C171.922 58.2188 172.07 58.3555 172.266 58.4336C172.461 58.5039 172.707 58.5391 173.004 58.5391C173.215 58.5391 173.402 58.5312 173.566 58.5156C173.738 58.4922 173.883 58.4688 174 58.4453L174.012 60.9297C173.723 61.0234 173.41 61.0977 173.074 61.1523C172.738 61.207 172.367 61.2344 171.961 61.2344C171.219 61.2344 170.57 61.1133 170.016 60.8711C169.469 60.6211 169.047 60.2227 168.75 59.6758C168.453 59.1289 168.305 58.4102 168.305 57.5195V45.1914ZM183.281 57.9648V48.3203H186.656V61H183.48L183.281 57.9648ZM183.656 55.3633L184.652 55.3398C184.652 56.1836 184.555 56.9688 184.359 57.6953C184.164 58.4141 183.871 59.0391 183.48 59.5703C183.09 60.0938 182.598 60.5039 182.004 60.8008C181.41 61.0898 180.711 61.2344 179.906 61.2344C179.289 61.2344 178.719 61.1484 178.195 60.9766C177.68 60.7969 177.234 60.5195 176.859 60.1445C176.492 59.7617 176.203 59.2734 175.992 58.6797C175.789 58.0781 175.688 57.3555 175.688 56.5117V48.3203H179.062V56.5352C179.062 56.9102 179.105 57.2266 179.191 57.4844C179.285 57.7422 179.414 57.9531 179.578 58.1172C179.742 58.2812 179.934 58.3984 180.152 58.4688C180.379 58.5391 180.629 58.5742 180.902 58.5742C181.598 58.5742 182.145 58.4336 182.543 58.1523C182.949 57.8711 183.234 57.4883 183.398 57.0039C183.57 56.5117 183.656 55.9648 183.656 55.3633ZM192.609 51.0859V61H189.234V48.3203H192.41L192.609 51.0859ZM196.43 48.2383L196.371 51.3672C196.207 51.3438 196.008 51.3242 195.773 51.3086C195.547 51.2852 195.34 51.2734 195.152 51.2734C194.676 51.2734 194.262 51.3359 193.91 51.4609C193.566 51.5781 193.277 51.7539 193.043 51.9883C192.816 52.2227 192.645 52.5078 192.527 52.8438C192.418 53.1797 192.355 53.5625 192.34 53.9922L191.66 53.7812C191.66 52.9609 191.742 52.207 191.906 51.5195C192.07 50.8242 192.309 50.2188 192.621 49.7031C192.941 49.1875 193.332 48.7891 193.793 48.5078C194.254 48.2266 194.781 48.0859 195.375 48.0859C195.562 48.0859 195.754 48.1016 195.949 48.1328C196.145 48.1562 196.305 48.1914 196.43 48.2383ZM203.625 61.2344C202.641 61.2344 201.758 61.0781 200.977 60.7656C200.195 60.4453 199.531 60.0039 198.984 59.4414C198.445 58.8789 198.031 58.2266 197.742 57.4844C197.453 56.7344 197.309 55.9375 197.309 55.0938V54.625C197.309 53.6641 197.445 52.7852 197.719 51.9883C197.992 51.1914 198.383 50.5 198.891 49.9141C199.406 49.3281 200.031 48.8789 200.766 48.5664C201.5 48.2461 202.328 48.0859 203.25 48.0859C204.148 48.0859 204.945 48.2344 205.641 48.5312C206.336 48.8281 206.918 49.25 207.387 49.7969C207.863 50.3438 208.223 51 208.465 51.7656C208.707 52.5234 208.828 53.3672 208.828 54.2969V55.7031H198.75V53.4531H205.512V53.1953C205.512 52.7266 205.426 52.3086 205.254 51.9414C205.09 51.5664 204.84 51.2695 204.504 51.0508C204.168 50.832 203.738 50.7227 203.215 50.7227C202.77 50.7227 202.387 50.8203 202.066 51.0156C201.746 51.2109 201.484 51.4844 201.281 51.8359C201.086 52.1875 200.938 52.6016 200.836 53.0781C200.742 53.5469 200.695 54.0625 200.695 54.625V55.0938C200.695 55.6016 200.766 56.0703 200.906 56.5C201.055 56.9297 201.262 57.3008 201.527 57.6133C201.801 57.9258 202.129 58.168 202.512 58.3398C202.902 58.5117 203.344 58.5977 203.836 58.5977C204.445 58.5977 205.012 58.4805 205.535 58.2461C206.066 58.0039 206.523 57.6406 206.906 57.1562L208.547 58.9375C208.281 59.3203 207.918 59.6875 207.457 60.0391C207.004 60.3906 206.457 60.6797 205.816 60.9062C205.176 61.125 204.445 61.2344 203.625 61.2344ZM225.82 56.5352C225.82 56.2305 225.773 55.957 225.68 55.7148C225.594 55.4648 225.43 55.2383 225.188 55.0352C224.945 54.8242 224.605 54.6172 224.168 54.4141C223.73 54.2109 223.164 54 222.469 53.7812C221.695 53.5312 220.961 53.25 220.266 52.9375C219.578 52.625 218.969 52.2617 218.438 51.8477C217.914 51.4258 217.5 50.9375 217.195 50.3828C216.898 49.8281 216.75 49.1836 216.75 48.4492C216.75 47.7383 216.906 47.0938 217.219 46.5156C217.531 45.9297 217.969 45.4297 218.531 45.0156C219.094 44.5938 219.758 44.2695 220.523 44.043C221.297 43.8164 222.145 43.7031 223.066 43.7031C224.324 43.7031 225.422 43.9297 226.359 44.3828C227.297 44.8359 228.023 45.457 228.539 46.2461C229.062 47.0352 229.324 47.9375 229.324 48.9531H225.832C225.832 48.4531 225.727 48.0156 225.516 47.6406C225.312 47.2578 225 46.957 224.578 46.7383C224.164 46.5195 223.641 46.4102 223.008 46.4102C222.398 46.4102 221.891 46.5039 221.484 46.6914C221.078 46.8711 220.773 47.1172 220.57 47.4297C220.367 47.7344 220.266 48.0781 220.266 48.4609C220.266 48.75 220.336 49.0117 220.477 49.2461C220.625 49.4805 220.844 49.6992 221.133 49.9023C221.422 50.1055 221.777 50.2969 222.199 50.4766C222.621 50.6562 223.109 50.832 223.664 51.0039C224.594 51.2852 225.41 51.6016 226.113 51.9531C226.824 52.3047 227.418 52.6992 227.895 53.1367C228.371 53.5742 228.73 54.0703 228.973 54.625C229.215 55.1797 229.336 55.8086 229.336 56.5117C229.336 57.2539 229.191 57.918 228.902 58.5039C228.613 59.0898 228.195 59.5859 227.648 59.9922C227.102 60.3984 226.449 60.707 225.691 60.918C224.934 61.1289 224.086 61.2344 223.148 61.2344C222.305 61.2344 221.473 61.125 220.652 60.9062C219.832 60.6797 219.086 60.3398 218.414 59.8867C217.75 59.4336 217.219 58.8555 216.82 58.1523C216.422 57.4492 216.223 56.6172 216.223 55.6562H219.75C219.75 56.1875 219.832 56.6367 219.996 57.0039C220.16 57.3711 220.391 57.668 220.688 57.8945C220.992 58.1211 221.352 58.2852 221.766 58.3867C222.188 58.4883 222.648 58.5391 223.148 58.5391C223.758 58.5391 224.258 58.4531 224.648 58.2812C225.047 58.1094 225.34 57.8711 225.527 57.5664C225.723 57.2617 225.82 56.918 225.82 56.5352ZM237.727 48.3203V50.7109H230.344V48.3203H237.727ZM232.172 45.1914H235.547V57.1797C235.547 57.5469 235.594 57.8281 235.688 58.0234C235.789 58.2188 235.938 58.3555 236.133 58.4336C236.328 58.5039 236.574 58.5391 236.871 58.5391C237.082 58.5391 237.27 58.5312 237.434 58.5156C237.605 58.4922 237.75 58.4688 237.867 58.4453L237.879 60.9297C237.59 61.0234 237.277 61.0977 236.941 61.1523C236.605 61.207 236.234 61.2344 235.828 61.2344C235.086 61.2344 234.438 61.1133 233.883 60.8711C233.336 60.6211 232.914 60.2227 232.617 59.6758C232.32 59.1289 232.172 58.4102 232.172 57.5195V45.1914ZM238.805 54.7891V54.543C238.805 53.6133 238.938 52.7578 239.203 51.9766C239.469 51.1875 239.855 50.5039 240.363 49.9258C240.871 49.3477 241.496 48.8984 242.238 48.5781C242.98 48.25 243.832 48.0859 244.793 48.0859C245.754 48.0859 246.609 48.25 247.359 48.5781C248.109 48.8984 248.738 49.3477 249.246 49.9258C249.762 50.5039 250.152 51.1875 250.418 51.9766C250.684 52.7578 250.816 53.6133 250.816 54.543V54.7891C250.816 55.7109 250.684 56.5664 250.418 57.3555C250.152 58.1367 249.762 58.8203 249.246 59.4062C248.738 59.9844 248.113 60.4336 247.371 60.7539C246.629 61.0742 245.777 61.2344 244.816 61.2344C243.855 61.2344 243 61.0742 242.25 60.7539C241.508 60.4336 240.879 59.9844 240.363 59.4062C239.855 58.8203 239.469 58.1367 239.203 57.3555C238.938 56.5664 238.805 55.7109 238.805 54.7891ZM242.18 54.543V54.7891C242.18 55.3203 242.227 55.8164 242.32 56.2773C242.414 56.7383 242.562 57.1445 242.766 57.4961C242.977 57.8398 243.25 58.1094 243.586 58.3047C243.922 58.5 244.332 58.5977 244.816 58.5977C245.285 58.5977 245.688 58.5 246.023 58.3047C246.359 58.1094 246.629 57.8398 246.832 57.4961C247.035 57.1445 247.184 56.7383 247.277 56.2773C247.379 55.8164 247.43 55.3203 247.43 54.7891V54.543C247.43 54.0273 247.379 53.543 247.277 53.0898C247.184 52.6289 247.031 52.2227 246.82 51.8711C246.617 51.5117 246.348 51.2305 246.012 51.0273C245.676 50.8242 245.27 50.7227 244.793 50.7227C244.316 50.7227 243.91 50.8242 243.574 51.0273C243.246 51.2305 242.977 51.5117 242.766 51.8711C242.562 52.2227 242.414 52.6289 242.32 53.0898C242.227 53.543 242.18 54.0273 242.18 54.543ZM256.266 51.0859V61H252.891V48.3203H256.066L256.266 51.0859ZM260.086 48.2383L260.027 51.3672C259.863 51.3438 259.664 51.3242 259.43 51.3086C259.203 51.2852 258.996 51.2734 258.809 51.2734C258.332 51.2734 257.918 51.3359 257.566 51.4609C257.223 51.5781 256.934 51.7539 256.699 51.9883C256.473 52.2227 256.301 52.5078 256.184 52.8438C256.074 53.1797 256.012 53.5625 255.996 53.9922L255.316 53.7812C255.316 52.9609 255.398 52.207 255.562 51.5195C255.727 50.8242 255.965 50.2188 256.277 49.7031C256.598 49.1875 256.988 48.7891 257.449 48.5078C257.91 48.2266 258.438 48.0859 259.031 48.0859C259.219 48.0859 259.41 48.1016 259.605 48.1328C259.801 48.1562 259.961 48.1914 260.086 48.2383ZM267.281 61.2344C266.297 61.2344 265.414 61.0781 264.633 60.7656C263.852 60.4453 263.188 60.0039 262.641 59.4414C262.102 58.8789 261.688 58.2266 261.398 57.4844C261.109 56.7344 260.965 55.9375 260.965 55.0938V54.625C260.965 53.6641 261.102 52.7852 261.375 51.9883C261.648 51.1914 262.039 50.5 262.547 49.9141C263.062 49.3281 263.688 48.8789 264.422 48.5664C265.156 48.2461 265.984 48.0859 266.906 48.0859C267.805 48.0859 268.602 48.2344 269.297 48.5312C269.992 48.8281 270.574 49.25 271.043 49.7969C271.52 50.3438 271.879 51 272.121 51.7656C272.363 52.5234 272.484 53.3672 272.484 54.2969V55.7031H262.406V53.4531H269.168V53.1953C269.168 52.7266 269.082 52.3086 268.91 51.9414C268.746 51.5664 268.496 51.2695 268.16 51.0508C267.824 50.832 267.395 50.7227 266.871 50.7227C266.426 50.7227 266.043 50.8203 265.723 51.0156C265.402 51.2109 265.141 51.4844 264.938 51.8359C264.742 52.1875 264.594 52.6016 264.492 53.0781C264.398 53.5469 264.352 54.0625 264.352 54.625V55.0938C264.352 55.6016 264.422 56.0703 264.562 56.5C264.711 56.9297 264.918 57.3008 265.184 57.6133C265.457 57.9258 265.785 58.168 266.168 58.3398C266.559 58.5117 267 58.5977 267.492 58.5977C268.102 58.5977 268.668 58.4805 269.191 58.2461C269.723 58.0039 270.18 57.6406 270.562 57.1562L272.203 58.9375C271.938 59.3203 271.574 59.6875 271.113 60.0391C270.66 60.3906 270.113 60.6797 269.473 60.9062C268.832 61.125 268.102 61.2344 267.281 61.2344Z" fill="#888888"/>
<path d="M110.062 92.0469L101.742 119H92.9062L105.445 84.875H111.047L110.062 92.0469ZM116.953 119L108.609 92.0469L107.531 84.875H113.203L125.812 119H116.953ZM116.625 106.273V112.625H99.1172V106.273H116.625ZM135.258 115.906L142.055 84.875H146.109L148.312 87.5234L141.07 119H136.594L135.258 115.906ZM133.453 84.875L139.195 116.141L137.719 119H132.539L125.297 84.875H133.453ZM152.039 115.977L157.734 84.875H165.867L158.625 119H153.469L152.039 115.977ZM149.039 84.875L156 116.094L154.594 119H150.117L142.711 87.4766L145.008 84.875H149.039ZM186.68 109.93C186.68 109.398 186.602 108.922 186.445 108.5C186.289 108.062 186 107.656 185.578 107.281C185.156 106.906 184.547 106.531 183.75 106.156C182.969 105.766 181.938 105.359 180.656 104.938C179.156 104.438 177.711 103.875 176.32 103.25C174.93 102.609 173.688 101.867 172.594 101.023C171.5 100.164 170.633 99.1641 169.992 98.0234C169.352 96.8672 169.031 95.5234 169.031 93.9922C169.031 92.5234 169.359 91.2031 170.016 90.0312C170.672 88.8438 171.586 87.8359 172.758 87.0078C173.945 86.1641 175.336 85.5234 176.93 85.0859C178.523 84.6328 180.266 84.4062 182.156 84.4062C184.656 84.4062 186.859 84.8438 188.766 85.7188C190.688 86.5781 192.188 87.8047 193.266 89.3984C194.359 90.9766 194.906 92.8438 194.906 95H186.727C186.727 94.1406 186.547 93.3828 186.188 92.7266C185.844 92.0703 185.32 91.5547 184.617 91.1797C183.914 90.8047 183.031 90.6172 181.969 90.6172C180.938 90.6172 180.07 90.7734 179.367 91.0859C178.664 91.3984 178.133 91.8203 177.773 92.3516C177.414 92.8672 177.234 93.4375 177.234 94.0625C177.234 94.5781 177.375 95.0469 177.656 95.4688C177.953 95.875 178.367 96.2578 178.898 96.6172C179.445 96.9766 180.102 97.3203 180.867 97.6484C181.648 97.9766 182.523 98.2969 183.492 98.6094C185.305 99.1875 186.914 99.8359 188.32 100.555C189.742 101.258 190.938 102.062 191.906 102.969C192.891 103.859 193.633 104.875 194.133 106.016C194.648 107.156 194.906 108.445 194.906 109.883C194.906 111.414 194.609 112.773 194.016 113.961C193.422 115.148 192.57 116.156 191.461 116.984C190.352 117.797 189.023 118.414 187.477 118.836C185.93 119.258 184.203 119.469 182.297 119.469C180.547 119.469 178.82 119.25 177.117 118.812C175.43 118.359 173.898 117.672 172.523 116.75C171.148 115.812 170.047 114.617 169.219 113.164C168.406 111.695 168 109.953 168 107.938H176.25C176.25 108.938 176.383 109.781 176.648 110.469C176.914 111.156 177.305 111.711 177.82 112.133C178.336 112.539 178.969 112.836 179.719 113.023C180.469 113.195 181.328 113.281 182.297 113.281C183.344 113.281 184.188 113.133 184.828 112.836C185.469 112.523 185.938 112.117 186.234 111.617C186.531 111.102 186.68 110.539 186.68 109.93ZM222.188 119H214.617L214.664 112.672H222.188C223.75 112.672 225.07 112.297 226.148 111.547C227.242 110.797 228.07 109.68 228.633 108.195C229.211 106.695 229.5 104.852 229.5 102.664V101.188C229.5 99.5469 229.336 98.1094 229.008 96.875C228.695 95.625 228.227 94.5859 227.602 93.7578C226.977 92.9141 226.195 92.2812 225.258 91.8594C224.336 91.4375 223.273 91.2266 222.07 91.2266H214.477V84.875H222.07C224.383 84.875 226.5 85.2734 228.422 86.0703C230.359 86.8516 232.031 87.9766 233.438 89.4453C234.859 90.8984 235.953 92.625 236.719 94.625C237.5 96.6094 237.891 98.8125 237.891 101.234V102.664C237.891 105.07 237.5 107.273 236.719 109.273C235.953 111.273 234.867 113 233.461 114.453C232.055 115.906 230.391 117.031 228.469 117.828C226.562 118.609 224.469 119 222.188 119ZM219.328 84.875V119H211.102V84.875H219.328ZM254.086 119.469C252.023 119.469 250.18 119.148 248.555 118.508C246.93 117.852 245.555 116.953 244.43 115.812C243.32 114.672 242.469 113.359 241.875 111.875C241.297 110.391 241.008 108.82 241.008 107.164V106.273C241.008 104.414 241.266 102.695 241.781 101.117C242.297 99.5234 243.062 98.1328 244.078 96.9453C245.094 95.7578 246.367 94.8359 247.898 94.1797C249.43 93.5078 251.211 93.1719 253.242 93.1719C255.039 93.1719 256.648 93.4609 258.07 94.0391C259.492 94.6172 260.695 95.4453 261.68 96.5234C262.68 97.6016 263.438 98.9062 263.953 100.438C264.484 101.969 264.75 103.688 264.75 105.594V108.805H244.031V103.859H257.039V103.25C257.055 102.406 256.906 101.688 256.594 101.094C256.297 100.5 255.859 100.047 255.281 99.7344C254.703 99.4219 254 99.2656 253.172 99.2656C252.312 99.2656 251.602 99.4531 251.039 99.8281C250.492 100.203 250.062 100.719 249.75 101.375C249.453 102.016 249.242 102.758 249.117 103.602C248.992 104.445 248.93 105.336 248.93 106.273V107.164C248.93 108.102 249.055 108.953 249.305 109.719C249.57 110.484 249.945 111.141 250.43 111.688C250.93 112.219 251.523 112.633 252.211 112.93C252.914 113.227 253.711 113.375 254.602 113.375C255.68 113.375 256.742 113.172 257.789 112.766C258.836 112.359 259.734 111.688 260.484 110.75L264.07 115.016C263.555 115.75 262.82 116.461 261.867 117.148C260.93 117.836 259.805 118.398 258.492 118.836C257.18 119.258 255.711 119.469 254.086 119.469ZM275.93 98.5156V128.75H268.031V93.6406H275.391L275.93 98.5156ZM291.492 106.016V106.508C291.492 108.352 291.281 110.062 290.859 111.641C290.438 113.219 289.812 114.594 288.984 115.766C288.156 116.938 287.125 117.852 285.891 118.508C284.672 119.148 283.258 119.469 281.648 119.469C280.133 119.469 278.828 119.133 277.734 118.461C276.641 117.789 275.727 116.859 274.992 115.672C274.258 114.484 273.664 113.125 273.211 111.594C272.758 110.062 272.398 108.445 272.133 106.742V106.109C272.398 104.281 272.758 102.586 273.211 101.023C273.664 99.4453 274.258 98.0703 274.992 96.8984C275.727 95.7266 276.633 94.8125 277.711 94.1562C278.805 93.5 280.109 93.1719 281.625 93.1719C283.234 93.1719 284.648 93.4766 285.867 94.0859C287.102 94.6953 288.133 95.5703 288.961 96.7109C289.805 97.8359 290.438 99.1875 290.859 100.766C291.281 102.344 291.492 104.094 291.492 106.016ZM283.594 106.508V106.016C283.594 105.031 283.523 104.133 283.383 103.32C283.242 102.492 283.016 101.773 282.703 101.164C282.406 100.555 282.008 100.086 281.508 99.7578C281.008 99.4297 280.391 99.2656 279.656 99.2656C278.812 99.2656 278.102 99.3984 277.523 99.6641C276.961 99.9141 276.508 100.305 276.164 100.836C275.836 101.352 275.602 102 275.461 102.781C275.336 103.547 275.281 104.445 275.297 105.477V107.398C275.266 108.586 275.383 109.633 275.648 110.539C275.914 111.43 276.375 112.125 277.031 112.625C277.688 113.125 278.578 113.375 279.703 113.375C280.453 113.375 281.078 113.203 281.578 112.859C282.078 112.5 282.477 112.008 282.773 111.383C283.07 110.742 283.281 110.008 283.406 109.18C283.531 108.352 283.594 107.461 283.594 106.508ZM303.352 83V119H295.43V83H303.352ZM307.242 106.578V106.086C307.242 104.227 307.508 102.516 308.039 100.953C308.57 99.375 309.352 98.0078 310.383 96.8516C311.414 95.6953 312.688 94.7969 314.203 94.1562C315.719 93.5 317.469 93.1719 319.453 93.1719C321.453 93.1719 323.211 93.5 324.727 94.1562C326.258 94.7969 327.539 95.6953 328.57 96.8516C329.602 98.0078 330.383 99.375 330.914 100.953C331.445 102.516 331.711 104.227 331.711 106.086V106.578C331.711 108.422 331.445 110.133 330.914 111.711C330.383 113.273 329.602 114.641 328.57 115.812C327.539 116.969 326.266 117.867 324.75 118.508C323.234 119.148 321.484 119.469 319.5 119.469C317.516 119.469 315.758 119.148 314.227 118.508C312.695 117.867 311.414 116.969 310.383 115.812C309.352 114.641 308.57 113.273 308.039 111.711C307.508 110.133 307.242 108.422 307.242 106.578ZM315.141 106.086V106.578C315.141 107.531 315.211 108.422 315.352 109.25C315.492 110.078 315.727 110.805 316.055 111.43C316.383 112.039 316.828 112.516 317.391 112.859C317.953 113.203 318.656 113.375 319.5 113.375C320.328 113.375 321.016 113.203 321.562 112.859C322.125 112.516 322.57 112.039 322.898 111.43C323.227 110.805 323.461 110.078 323.602 109.25C323.742 108.422 323.812 107.531 323.812 106.578V106.086C323.812 105.164 323.742 104.297 323.602 103.484C323.461 102.656 323.227 101.93 322.898 101.305C322.57 100.664 322.125 100.164 321.562 99.8047C321 99.4453 320.297 99.2656 319.453 99.2656C318.625 99.2656 317.93 99.4453 317.367 99.8047C316.82 100.164 316.383 100.664 316.055 101.305C315.727 101.93 315.492 102.656 315.352 103.484C315.211 104.297 315.141 105.164 315.141 106.086ZM342.633 116.023L349.195 93.6406H357.68L347.484 122.773C347.266 123.414 346.977 124.102 346.617 124.836C346.258 125.586 345.766 126.297 345.141 126.969C344.516 127.641 343.711 128.188 342.727 128.609C341.758 129.031 340.555 129.242 339.117 129.242C338.352 129.242 337.789 129.203 337.43 129.125C337.086 129.062 336.555 128.945 335.836 128.773V123.125C336.039 123.125 336.211 123.125 336.352 123.125C336.508 123.125 336.68 123.125 336.867 123.125C337.711 123.125 338.383 123.039 338.883 122.867C339.398 122.695 339.789 122.445 340.055 122.117C340.336 121.789 340.555 121.391 340.711 120.922L342.633 116.023ZM340.969 93.6406L345.961 111.383L346.828 119.75H341.531L332.508 93.6406H340.969ZM367.711 99.0078V119H359.812V93.6406H367.219L367.711 99.0078ZM366.75 105.453L364.945 105.5C364.945 103.719 365.156 102.078 365.578 100.578C366 99.0781 366.625 97.7734 367.453 96.6641C368.281 95.5547 369.297 94.6953 370.5 94.0859C371.719 93.4766 373.125 93.1719 374.719 93.1719C375.828 93.1719 376.836 93.3438 377.742 93.6875C378.648 94.0156 379.43 94.5391 380.086 95.2578C380.742 95.9609 381.242 96.8828 381.586 98.0234C381.945 99.1484 382.125 100.5 382.125 102.078V119H374.227V103.086C374.227 102.008 374.102 101.195 373.852 100.648C373.617 100.102 373.273 99.7344 372.82 99.5469C372.367 99.3594 371.812 99.2656 371.156 99.2656C370.469 99.2656 369.852 99.4219 369.305 99.7344C368.758 100.047 368.289 100.484 367.898 101.047C367.523 101.594 367.234 102.242 367.031 102.992C366.844 103.742 366.75 104.562 366.75 105.453ZM381.234 105.453L379.031 105.5C379.031 103.719 379.227 102.078 379.617 100.578C380.023 99.0781 380.625 97.7734 381.422 96.6641C382.234 95.5547 383.242 94.6953 384.445 94.0859C385.648 93.4766 387.047 93.1719 388.641 93.1719C389.797 93.1719 390.859 93.3438 391.828 93.6875C392.797 94.0312 393.633 94.5859 394.336 95.3516C395.039 96.1172 395.586 97.1328 395.977 98.3984C396.367 99.6484 396.562 101.195 396.562 103.039V119H388.641V103.039C388.641 101.992 388.516 101.203 388.266 100.672C388.031 100.125 387.688 99.7578 387.234 99.5703C386.781 99.3672 386.242 99.2656 385.617 99.2656C384.867 99.2656 384.219 99.4219 383.672 99.7344C383.125 100.047 382.664 100.484 382.289 101.047C381.93 101.594 381.664 102.242 381.492 102.992C381.32 103.742 381.234 104.562 381.234 105.453ZM413.367 119.469C411.305 119.469 409.461 119.148 407.836 118.508C406.211 117.852 404.836 116.953 403.711 115.812C402.602 114.672 401.75 113.359 401.156 111.875C400.578 110.391 400.289 108.82 400.289 107.164V106.273C400.289 104.414 400.547 102.695 401.062 101.117C401.578 99.5234 402.344 98.1328 403.359 96.9453C404.375 95.7578 405.648 94.8359 407.18 94.1797C408.711 93.5078 410.492 93.1719 412.523 93.1719C414.32 93.1719 415.93 93.4609 417.352 94.0391C418.773 94.6172 419.977 95.4453 420.961 96.5234C421.961 97.6016 422.719 98.9062 423.234 100.438C423.766 101.969 424.031 103.688 424.031 105.594V108.805H403.312V103.859H416.32V103.25C416.336 102.406 416.188 101.688 415.875 101.094C415.578 100.5 415.141 100.047 414.562 99.7344C413.984 99.4219 413.281 99.2656 412.453 99.2656C411.594 99.2656 410.883 99.4531 410.32 99.8281C409.773 100.203 409.344 100.719 409.031 101.375C408.734 102.016 408.523 102.758 408.398 103.602C408.273 104.445 408.211 105.336 408.211 106.273V107.164C408.211 108.102 408.336 108.953 408.586 109.719C408.852 110.484 409.227 111.141 409.711 111.688C410.211 112.219 410.805 112.633 411.492 112.93C412.195 113.227 412.992 113.375 413.883 113.375C414.961 113.375 416.023 113.172 417.07 112.766C418.117 112.359 419.016 111.688 419.766 110.75L423.352 115.016C422.836 115.75 422.102 116.461 421.148 117.148C420.211 117.836 419.086 118.398 417.773 118.836C416.461 119.258 414.992 119.469 413.367 119.469ZM435 99.0547V119H427.102V93.6406H434.508L435 99.0547ZM434.062 105.453L432.211 105.5C432.211 103.562 432.445 101.836 432.914 100.32C433.383 98.7891 434.047 97.4922 434.906 96.4297C435.766 95.3672 436.789 94.5625 437.977 94.0156C439.18 93.4531 440.516 93.1719 441.984 93.1719C443.156 93.1719 444.227 93.3438 445.195 93.6875C446.18 94.0312 447.023 94.5859 447.727 95.3516C448.445 96.1172 448.992 97.1328 449.367 98.3984C449.758 99.6484 449.953 101.195 449.953 103.039V119H442.008V103.016C442.008 102 441.867 101.227 441.586 100.695C441.305 100.148 440.898 99.7734 440.367 99.5703C439.836 99.3672 439.188 99.2656 438.422 99.2656C437.609 99.2656 436.922 99.4219 436.359 99.7344C435.797 100.047 435.344 100.484 435 101.047C434.672 101.594 434.43 102.242 434.273 102.992C434.133 103.742 434.062 104.562 434.062 105.453ZM467.695 93.6406V99.125H452.414V93.6406H467.695ZM455.625 87.3359H463.523V110.727C463.523 111.398 463.602 111.922 463.758 112.297C463.914 112.656 464.18 112.914 464.555 113.07C464.945 113.211 465.461 113.281 466.102 113.281C466.555 113.281 466.93 113.273 467.227 113.258C467.523 113.227 467.805 113.188 468.07 113.141V118.789C467.398 119.008 466.695 119.172 465.961 119.281C465.227 119.406 464.445 119.469 463.617 119.469C461.93 119.469 460.484 119.203 459.281 118.672C458.094 118.141 457.188 117.305 456.562 116.164C455.938 115.023 455.625 113.539 455.625 111.711V87.3359Z" fill="black"/>
<path d="M1134 0H1348C1356.28 0 1363 6.71573 1363 15V148C1363 156.284 1356.28 163 1348 163H1134V0Z" fill="#F8BC93"/>
<path d="M1212.5 117.5L1212.5 45.5L1284.5 45.5L1284.5 117.5L1212.5 117.5Z" fill="white" fill-opacity="0.01"/>
<path d="M1221.5 81.5125L1221.5 108.5L1275.5 108.5L1275.5 81.5" stroke="white" stroke-width="7.24" stroke-linecap="round" stroke-linejoin="round"/>
<path d="M1262 68L1248.5 54.5L1235 68" stroke="white" stroke-width="7.24" stroke-linecap="round" stroke-linejoin="round"/>
<path d="M1248.49 93.5L1248.49 54.5" stroke="white" stroke-width="7.24" stroke-linecap="round" stroke-linejoin="round"/>
</svg>
