<svg width="1363" height="163" viewBox="0 0 1363 163" fill="none" xmlns="http://www.w3.org/2000/svg">
<path d="M0 15C0 6.71573 6.71573 0 15 0H37V163H15C6.71573 163 0 156.284 0 148V15Z" fill="#FED6BB"/>
<rect width="1097" height="163" transform="translate(37)" fill="#F0F0F0"/>
<path d="M101.906 53.9219L94.3945 51.2383V48.0859L104.602 52.375V54.6367L101.906 53.9219ZM94.3945 56.1719L101.918 53.4297L104.602 52.7852V55.0352L94.3945 59.3242V56.1719ZM116.414 43.9375V61H112.898V43.9375H116.414ZM123.211 51.2266V53.9688H115.453V51.2266H123.211ZM124.031 43.9375V46.6914H115.453V43.9375H124.031ZM133.102 57.9648V48.3203H136.477V61H133.301L133.102 57.9648ZM133.477 55.3633L134.473 55.3398C134.473 56.1836 134.375 56.9688 134.18 57.6953C133.984 58.4141 133.691 59.0391 133.301 59.5703C132.91 60.0938 132.418 60.5039 131.824 60.8008C131.23 61.0898 130.531 61.2344 129.727 61.2344C129.109 61.2344 128.539 61.1484 128.016 60.9766C127.5 60.7969 127.055 60.5195 126.68 60.1445C126.312 59.7617 126.023 59.2734 125.812 58.6797C125.609 58.0781 125.508 57.3555 125.508 56.5117V48.3203H128.883V56.5352C128.883 56.9102 128.926 57.2266 129.012 57.4844C129.105 57.7422 129.234 57.9531 129.398 58.1172C129.562 58.2812 129.754 58.3984 129.973 58.4688C130.199 58.5391 130.449 58.5742 130.723 58.5742C131.418 58.5742 131.965 58.4336 132.363 58.1523C132.77 57.8711 133.055 57.4883 133.219 57.0039C133.391 56.5117 133.477 55.9648 133.477 55.3633ZM142.43 51.0859V61H139.055V48.3203H142.23L142.43 51.0859ZM146.25 48.2383L146.191 51.3672C146.027 51.3438 145.828 51.3242 145.594 51.3086C145.367 51.2852 145.16 51.2734 144.973 51.2734C144.496 51.2734 144.082 51.3359 143.73 51.4609C143.387 51.5781 143.098 51.7539 142.863 51.9883C142.637 52.2227 142.465 52.5078 142.348 52.8438C142.238 53.1797 142.176 53.5625 142.16 53.9922L141.48 53.7812C141.48 52.9609 141.562 52.207 141.727 51.5195C141.891 50.8242 142.129 50.2188 142.441 49.7031C142.762 49.1875 143.152 48.7891 143.613 48.5078C144.074 48.2266 144.602 48.0859 145.195 48.0859C145.383 48.0859 145.574 48.1016 145.77 48.1328C145.965 48.1562 146.125 48.1914 146.25 48.2383ZM151.148 51.0273V61H147.773V48.3203H150.938L151.148 51.0273ZM150.656 54.2148H149.742C149.742 53.2773 149.863 52.4336 150.105 51.6836C150.348 50.9258 150.688 50.2812 151.125 49.75C151.562 49.2109 152.082 48.8008 152.684 48.5195C153.293 48.2305 153.973 48.0859 154.723 48.0859C155.316 48.0859 155.859 48.1719 156.352 48.3438C156.844 48.5156 157.266 48.7891 157.617 49.1641C157.977 49.5391 158.25 50.0352 158.438 50.6523C158.633 51.2695 158.73 52.0234 158.73 52.9141V61H155.332V52.9023C155.332 52.3398 155.254 51.9023 155.098 51.5898C154.941 51.2773 154.711 51.0586 154.406 50.9336C154.109 50.8008 153.742 50.7344 153.305 50.7344C152.852 50.7344 152.457 50.8242 152.121 51.0039C151.793 51.1836 151.52 51.4336 151.301 51.7539C151.09 52.0664 150.93 52.4336 150.82 52.8555C150.711 53.2773 150.656 53.7305 150.656 54.2148ZM164.859 48.3203V61H161.473V48.3203H164.859ZM161.262 45.0156C161.262 44.5234 161.434 44.1172 161.777 43.7969C162.121 43.4766 162.582 43.3164 163.16 43.3164C163.73 43.3164 164.188 43.4766 164.531 43.7969C164.883 44.1172 165.059 44.5234 165.059 45.0156C165.059 45.5078 164.883 45.9141 164.531 46.2344C164.188 46.5547 163.73 46.7148 163.16 46.7148C162.582 46.7148 162.121 46.5547 161.777 46.2344C161.434 45.9141 161.262 45.5078 161.262 45.0156ZM173.859 48.3203V50.7109H166.477V48.3203H173.859ZM168.305 45.1914H171.68V57.1797C171.68 57.5469 171.727 57.8281 171.82 58.0234C171.922 58.2188 172.07 58.3555 172.266 58.4336C172.461 58.5039 172.707 58.5391 173.004 58.5391C173.215 58.5391 173.402 58.5312 173.566 58.5156C173.738 58.4922 173.883 58.4688 174 58.4453L174.012 60.9297C173.723 61.0234 173.41 61.0977 173.074 61.1523C172.738 61.207 172.367 61.2344 171.961 61.2344C171.219 61.2344 170.57 61.1133 170.016 60.8711C169.469 60.6211 169.047 60.2227 168.75 59.6758C168.453 59.1289 168.305 58.4102 168.305 57.5195V45.1914ZM183.281 57.9648V48.3203H186.656V61H183.48L183.281 57.9648ZM183.656 55.3633L184.652 55.3398C184.652 56.1836 184.555 56.9688 184.359 57.6953C184.164 58.4141 183.871 59.0391 183.48 59.5703C183.09 60.0938 182.598 60.5039 182.004 60.8008C181.41 61.0898 180.711 61.2344 179.906 61.2344C179.289 61.2344 178.719 61.1484 178.195 60.9766C177.68 60.7969 177.234 60.5195 176.859 60.1445C176.492 59.7617 176.203 59.2734 175.992 58.6797C175.789 58.0781 175.688 57.3555 175.688 56.5117V48.3203H179.062V56.5352C179.062 56.9102 179.105 57.2266 179.191 57.4844C179.285 57.7422 179.414 57.9531 179.578 58.1172C179.742 58.2812 179.934 58.3984 180.152 58.4688C180.379 58.5391 180.629 58.5742 180.902 58.5742C181.598 58.5742 182.145 58.4336 182.543 58.1523C182.949 57.8711 183.234 57.4883 183.398 57.0039C183.57 56.5117 183.656 55.9648 183.656 55.3633ZM192.609 51.0859V61H189.234V48.3203H192.41L192.609 51.0859ZM196.43 48.2383L196.371 51.3672C196.207 51.3438 196.008 51.3242 195.773 51.3086C195.547 51.2852 195.34 51.2734 195.152 51.2734C194.676 51.2734 194.262 51.3359 193.91 51.4609C193.566 51.5781 193.277 51.7539 193.043 51.9883C192.816 52.2227 192.645 52.5078 192.527 52.8438C192.418 53.1797 192.355 53.5625 192.34 53.9922L191.66 53.7812C191.66 52.9609 191.742 52.207 191.906 51.5195C192.07 50.8242 192.309 50.2188 192.621 49.7031C192.941 49.1875 193.332 48.7891 193.793 48.5078C194.254 48.2266 194.781 48.0859 195.375 48.0859C195.562 48.0859 195.754 48.1016 195.949 48.1328C196.145 48.1562 196.305 48.1914 196.43 48.2383ZM203.625 61.2344C202.641 61.2344 201.758 61.0781 200.977 60.7656C200.195 60.4453 199.531 60.0039 198.984 59.4414C198.445 58.8789 198.031 58.2266 197.742 57.4844C197.453 56.7344 197.309 55.9375 197.309 55.0938V54.625C197.309 53.6641 197.445 52.7852 197.719 51.9883C197.992 51.1914 198.383 50.5 198.891 49.9141C199.406 49.3281 200.031 48.8789 200.766 48.5664C201.5 48.2461 202.328 48.0859 203.25 48.0859C204.148 48.0859 204.945 48.2344 205.641 48.5312C206.336 48.8281 206.918 49.25 207.387 49.7969C207.863 50.3438 208.223 51 208.465 51.7656C208.707 52.5234 208.828 53.3672 208.828 54.2969V55.7031H198.75V53.4531H205.512V53.1953C205.512 52.7266 205.426 52.3086 205.254 51.9414C205.09 51.5664 204.84 51.2695 204.504 51.0508C204.168 50.832 203.738 50.7227 203.215 50.7227C202.77 50.7227 202.387 50.8203 202.066 51.0156C201.746 51.2109 201.484 51.4844 201.281 51.8359C201.086 52.1875 200.938 52.6016 200.836 53.0781C200.742 53.5469 200.695 54.0625 200.695 54.625V55.0938C200.695 55.6016 200.766 56.0703 200.906 56.5C201.055 56.9297 201.262 57.3008 201.527 57.6133C201.801 57.9258 202.129 58.168 202.512 58.3398C202.902 58.5117 203.344 58.5977 203.836 58.5977C204.445 58.5977 205.012 58.4805 205.535 58.2461C206.066 58.0039 206.523 57.6406 206.906 57.1562L208.547 58.9375C208.281 59.3203 207.918 59.6875 207.457 60.0391C207.004 60.3906 206.457 60.6797 205.816 60.9062C205.176 61.125 204.445 61.2344 203.625 61.2344ZM225.82 56.5352C225.82 56.2305 225.773 55.957 225.68 55.7148C225.594 55.4648 225.43 55.2383 225.188 55.0352C224.945 54.8242 224.605 54.6172 224.168 54.4141C223.73 54.2109 223.164 54 222.469 53.7812C221.695 53.5312 220.961 53.25 220.266 52.9375C219.578 52.625 218.969 52.2617 218.438 51.8477C217.914 51.4258 217.5 50.9375 217.195 50.3828C216.898 49.8281 216.75 49.1836 216.75 48.4492C216.75 47.7383 216.906 47.0938 217.219 46.5156C217.531 45.9297 217.969 45.4297 218.531 45.0156C219.094 44.5938 219.758 44.2695 220.523 44.043C221.297 43.8164 222.145 43.7031 223.066 43.7031C224.324 43.7031 225.422 43.9297 226.359 44.3828C227.297 44.8359 228.023 45.457 228.539 46.2461C229.062 47.0352 229.324 47.9375 229.324 48.9531H225.832C225.832 48.4531 225.727 48.0156 225.516 47.6406C225.312 47.2578 225 46.957 224.578 46.7383C224.164 46.5195 223.641 46.4102 223.008 46.4102C222.398 46.4102 221.891 46.5039 221.484 46.6914C221.078 46.8711 220.773 47.1172 220.57 47.4297C220.367 47.7344 220.266 48.0781 220.266 48.4609C220.266 48.75 220.336 49.0117 220.477 49.2461C220.625 49.4805 220.844 49.6992 221.133 49.9023C221.422 50.1055 221.777 50.2969 222.199 50.4766C222.621 50.6562 223.109 50.832 223.664 51.0039C224.594 51.2852 225.41 51.6016 226.113 51.9531C226.824 52.3047 227.418 52.6992 227.895 53.1367C228.371 53.5742 228.73 54.0703 228.973 54.625C229.215 55.1797 229.336 55.8086 229.336 56.5117C229.336 57.2539 229.191 57.918 228.902 58.5039C228.613 59.0898 228.195 59.5859 227.648 59.9922C227.102 60.3984 226.449 60.707 225.691 60.918C224.934 61.1289 224.086 61.2344 223.148 61.2344C222.305 61.2344 221.473 61.125 220.652 60.9062C219.832 60.6797 219.086 60.3398 218.414 59.8867C217.75 59.4336 217.219 58.8555 216.82 58.1523C216.422 57.4492 216.223 56.6172 216.223 55.6562H219.75C219.75 56.1875 219.832 56.6367 219.996 57.0039C220.16 57.3711 220.391 57.668 220.688 57.8945C220.992 58.1211 221.352 58.2852 221.766 58.3867C222.188 58.4883 222.648 58.5391 223.148 58.5391C223.758 58.5391 224.258 58.4531 224.648 58.2812C225.047 58.1094 225.34 57.8711 225.527 57.5664C225.723 57.2617 225.82 56.918 225.82 56.5352ZM237.727 48.3203V50.7109H230.344V48.3203H237.727ZM232.172 45.1914H235.547V57.1797C235.547 57.5469 235.594 57.8281 235.688 58.0234C235.789 58.2188 235.938 58.3555 236.133 58.4336C236.328 58.5039 236.574 58.5391 236.871 58.5391C237.082 58.5391 237.27 58.5312 237.434 58.5156C237.605 58.4922 237.75 58.4688 237.867 58.4453L237.879 60.9297C237.59 61.0234 237.277 61.0977 236.941 61.1523C236.605 61.207 236.234 61.2344 235.828 61.2344C235.086 61.2344 234.438 61.1133 233.883 60.8711C233.336 60.6211 232.914 60.2227 232.617 59.6758C232.32 59.1289 232.172 58.4102 232.172 57.5195V45.1914ZM238.805 54.7891V54.543C238.805 53.6133 238.938 52.7578 239.203 51.9766C239.469 51.1875 239.855 50.5039 240.363 49.9258C240.871 49.3477 241.496 48.8984 242.238 48.5781C242.98 48.25 243.832 48.0859 244.793 48.0859C245.754 48.0859 246.609 48.25 247.359 48.5781C248.109 48.8984 248.738 49.3477 249.246 49.9258C249.762 50.5039 250.152 51.1875 250.418 51.9766C250.684 52.7578 250.816 53.6133 250.816 54.543V54.7891C250.816 55.7109 250.684 56.5664 250.418 57.3555C250.152 58.1367 249.762 58.8203 249.246 59.4062C248.738 59.9844 248.113 60.4336 247.371 60.7539C246.629 61.0742 245.777 61.2344 244.816 61.2344C243.855 61.2344 243 61.0742 242.25 60.7539C241.508 60.4336 240.879 59.9844 240.363 59.4062C239.855 58.8203 239.469 58.1367 239.203 57.3555C238.938 56.5664 238.805 55.7109 238.805 54.7891ZM242.18 54.543V54.7891C242.18 55.3203 242.227 55.8164 242.32 56.2773C242.414 56.7383 242.562 57.1445 242.766 57.4961C242.977 57.8398 243.25 58.1094 243.586 58.3047C243.922 58.5 244.332 58.5977 244.816 58.5977C245.285 58.5977 245.688 58.5 246.023 58.3047C246.359 58.1094 246.629 57.8398 246.832 57.4961C247.035 57.1445 247.184 56.7383 247.277 56.2773C247.379 55.8164 247.43 55.3203 247.43 54.7891V54.543C247.43 54.0273 247.379 53.543 247.277 53.0898C247.184 52.6289 247.031 52.2227 246.82 51.8711C246.617 51.5117 246.348 51.2305 246.012 51.0273C245.676 50.8242 245.27 50.7227 244.793 50.7227C244.316 50.7227 243.91 50.8242 243.574 51.0273C243.246 51.2305 242.977 51.5117 242.766 51.8711C242.562 52.2227 242.414 52.6289 242.32 53.0898C242.227 53.543 242.18 54.0273 242.18 54.543ZM256.266 51.0859V61H252.891V48.3203H256.066L256.266 51.0859ZM260.086 48.2383L260.027 51.3672C259.863 51.3438 259.664 51.3242 259.43 51.3086C259.203 51.2852 258.996 51.2734 258.809 51.2734C258.332 51.2734 257.918 51.3359 257.566 51.4609C257.223 51.5781 256.934 51.7539 256.699 51.9883C256.473 52.2227 256.301 52.5078 256.184 52.8438C256.074 53.1797 256.012 53.5625 255.996 53.9922L255.316 53.7812C255.316 52.9609 255.398 52.207 255.562 51.5195C255.727 50.8242 255.965 50.2188 256.277 49.7031C256.598 49.1875 256.988 48.7891 257.449 48.5078C257.91 48.2266 258.438 48.0859 259.031 48.0859C259.219 48.0859 259.41 48.1016 259.605 48.1328C259.801 48.1562 259.961 48.1914 260.086 48.2383ZM267.281 61.2344C266.297 61.2344 265.414 61.0781 264.633 60.7656C263.852 60.4453 263.188 60.0039 262.641 59.4414C262.102 58.8789 261.688 58.2266 261.398 57.4844C261.109 56.7344 260.965 55.9375 260.965 55.0938V54.625C260.965 53.6641 261.102 52.7852 261.375 51.9883C261.648 51.1914 262.039 50.5 262.547 49.9141C263.062 49.3281 263.688 48.8789 264.422 48.5664C265.156 48.2461 265.984 48.0859 266.906 48.0859C267.805 48.0859 268.602 48.2344 269.297 48.5312C269.992 48.8281 270.574 49.25 271.043 49.7969C271.52 50.3438 271.879 51 272.121 51.7656C272.363 52.5234 272.484 53.3672 272.484 54.2969V55.7031H262.406V53.4531H269.168V53.1953C269.168 52.7266 269.082 52.3086 268.91 51.9414C268.746 51.5664 268.496 51.2695 268.16 51.0508C267.824 50.832 267.395 50.7227 266.871 50.7227C266.426 50.7227 266.043 50.8203 265.723 51.0156C265.402 51.2109 265.141 51.4844 264.938 51.8359C264.742 52.1875 264.594 52.6016 264.492 53.0781C264.398 53.5469 264.352 54.0625 264.352 54.625V55.0938C264.352 55.6016 264.422 56.0703 264.562 56.5C264.711 56.9297 264.918 57.3008 265.184 57.6133C265.457 57.9258 265.785 58.168 266.168 58.3398C266.559 58.5117 267 58.5977 267.492 58.5977C268.102 58.5977 268.668 58.4805 269.191 58.2461C269.723 58.0039 270.18 57.6406 270.562 57.1562L272.203 58.9375C271.938 59.3203 271.574 59.6875 271.113 60.0391C270.66 60.3906 270.113 60.6797 269.473 60.9062C268.832 61.125 268.102 61.2344 267.281 61.2344Z" fill="#888888"/>
<path d="M114.117 84.875H122.344V107.164C122.344 109.82 121.789 112.07 120.68 113.914C119.57 115.742 118.016 117.125 116.016 118.062C114.016 119 111.664 119.469 108.961 119.469C106.289 119.469 103.938 119 101.906 118.062C99.8906 117.125 98.3125 115.742 97.1719 113.914C96.0469 112.07 95.4844 109.82 95.4844 107.164V84.875H103.734V107.164C103.734 108.57 103.938 109.719 104.344 110.609C104.75 111.484 105.344 112.125 106.125 112.531C106.906 112.938 107.852 113.141 108.961 113.141C110.086 113.141 111.031 112.938 111.797 112.531C112.562 112.125 113.141 111.484 113.531 110.609C113.922 109.719 114.117 108.57 114.117 107.164V84.875ZM136.266 84.875V119H128.062V84.875H136.266ZM172.523 84.875H180.75V107.164C180.75 109.82 180.195 112.07 179.086 113.914C177.977 115.742 176.422 117.125 174.422 118.062C172.422 119 170.07 119.469 167.367 119.469C164.695 119.469 162.344 119 160.312 118.062C158.297 117.125 156.719 115.742 155.578 113.914C154.453 112.07 153.891 109.82 153.891 107.164V84.875H162.141V107.164C162.141 108.57 162.344 109.719 162.75 110.609C163.156 111.484 163.75 112.125 164.531 112.531C165.312 112.938 166.258 113.141 167.367 113.141C168.492 113.141 169.438 112.938 170.203 112.531C170.969 112.125 171.547 111.484 171.938 110.609C172.328 109.719 172.523 108.57 172.523 107.164V84.875ZM193.078 84.875L198.656 96.2188L204.234 84.875H213.609L204.094 101.797L213.867 119H204.398L198.656 107.445L192.914 119H183.422L193.219 101.797L183.68 84.875H193.078Z" fill="black"/>
<path d="M1134 0H1348C1356.28 0 1363 6.71573 1363 15V148C1363 156.284 1356.28 163 1348 163H1134V0Z" fill="#F8BC93"/>
<path d="M1248.5 111.917C1244.51 111.917 1240.55 111.13 1236.86 109.601C1233.17 108.073 1229.82 105.832 1226.99 103.008C1221.29 97.3036 1218.08 89.567 1218.08 81.5C1218.08 73.433 1221.29 65.6964 1226.99 59.9922C1232.7 54.2879 1240.43 51.0833 1248.5 51.0833C1265.23 51.0833 1278.92 63.25 1278.92 78.4583C1278.92 83.2985 1276.99 87.9405 1273.57 91.363C1270.15 94.7856 1265.51 96.7083 1260.67 96.7083H1255.19C1254.28 96.7083 1253.67 97.3167 1253.67 98.2292C1253.67 98.5333 1253.97 98.8375 1253.97 99.1417C1255.19 100.662 1255.8 102.487 1255.8 104.312C1256.1 108.571 1252.76 111.917 1248.5 111.917ZM1248.5 57.1667C1242.05 57.1667 1235.86 59.7303 1231.29 64.2937C1226.73 68.8571 1224.17 75.0464 1224.17 81.5C1224.17 87.9536 1226.73 94.1429 1231.29 98.7063C1235.86 103.27 1242.05 105.833 1248.5 105.833C1249.41 105.833 1250.02 105.225 1250.02 104.312C1250.02 103.704 1249.72 103.4 1249.72 103.096C1248.5 101.575 1247.89 100.054 1247.89 98.2292C1247.89 93.9708 1251.24 90.625 1255.5 90.625H1260.67C1263.89 90.625 1266.99 89.3432 1269.27 87.0615C1271.55 84.7798 1272.83 81.6851 1272.83 78.4583C1272.83 66.5958 1261.88 57.1667 1248.5 57.1667ZM1231.77 75.4167C1234.2 75.4167 1236.33 77.5458 1236.33 79.9792C1236.33 82.4125 1234.2 84.5417 1231.77 84.5417C1229.34 84.5417 1227.21 82.4125 1227.21 79.9792C1227.21 77.5458 1229.34 75.4167 1231.77 75.4167ZM1240.9 63.25C1243.33 63.25 1245.46 65.3792 1245.46 67.8125C1245.46 70.2458 1243.33 72.375 1240.9 72.375C1238.46 72.375 1236.33 70.2458 1236.33 67.8125C1236.33 65.3792 1238.46 63.25 1240.9 63.25ZM1256.1 63.25C1258.54 63.25 1260.67 65.3792 1260.67 67.8125C1260.67 70.2458 1258.54 72.375 1256.1 72.375C1253.67 72.375 1251.54 70.2458 1251.54 67.8125C1251.54 65.3792 1253.67 63.25 1256.1 63.25ZM1265.23 75.4167C1267.66 75.4167 1269.79 77.5458 1269.79 79.9792C1269.79 82.4125 1267.66 84.5417 1265.23 84.5417C1262.8 84.5417 1260.67 82.4125 1260.67 79.9792C1260.67 77.5458 1262.8 75.4167 1265.23 75.4167Z" fill="white"/>
</svg>
