<svg width="1363" height="163" viewBox="0 0 1363 163" fill="none" xmlns="http://www.w3.org/2000/svg">
<path d="M0 15C0 6.71573 6.71573 0 15 0H37V163H15C6.71573 163 0 156.284 0 148V15Z" fill="#FED6BB"/>
<rect width="1097" height="163" transform="translate(37)" fill="#F0F0F0"/>
<path d="M101.906 53.9219L94.3945 51.2383V48.0859L104.602 52.375V54.6367L101.906 53.9219ZM94.3945 56.1719L101.918 53.4297L104.602 52.7852V55.0352L94.3945 59.3242V56.1719ZM116.414 43.9375V61H112.898V43.9375H116.414ZM123.211 51.2266V53.9688H115.453V51.2266H123.211ZM124.031 43.9375V46.6914H115.453V43.9375H124.031ZM133.102 57.9648V48.3203H136.477V61H133.301L133.102 57.9648ZM133.477 55.3633L134.473 55.3398C134.473 56.1836 134.375 56.9688 134.18 57.6953C133.984 58.4141 133.691 59.0391 133.301 59.5703C132.91 60.0938 132.418 60.5039 131.824 60.8008C131.23 61.0898 130.531 61.2344 129.727 61.2344C129.109 61.2344 128.539 61.1484 128.016 60.9766C127.5 60.7969 127.055 60.5195 126.68 60.1445C126.312 59.7617 126.023 59.2734 125.812 58.6797C125.609 58.0781 125.508 57.3555 125.508 56.5117V48.3203H128.883V56.5352C128.883 56.9102 128.926 57.2266 129.012 57.4844C129.105 57.7422 129.234 57.9531 129.398 58.1172C129.562 58.2812 129.754 58.3984 129.973 58.4688C130.199 58.5391 130.449 58.5742 130.723 58.5742C131.418 58.5742 131.965 58.4336 132.363 58.1523C132.77 57.8711 133.055 57.4883 133.219 57.0039C133.391 56.5117 133.477 55.9648 133.477 55.3633ZM142.43 51.0859V61H139.055V48.3203H142.23L142.43 51.0859ZM146.25 48.2383L146.191 51.3672C146.027 51.3438 145.828 51.3242 145.594 51.3086C145.367 51.2852 145.16 51.2734 144.973 51.2734C144.496 51.2734 144.082 51.3359 143.73 51.4609C143.387 51.5781 143.098 51.7539 142.863 51.9883C142.637 52.2227 142.465 52.5078 142.348 52.8438C142.238 53.1797 142.176 53.5625 142.16 53.9922L141.48 53.7812C141.48 52.9609 141.562 52.207 141.727 51.5195C141.891 50.8242 142.129 50.2188 142.441 49.7031C142.762 49.1875 143.152 48.7891 143.613 48.5078C144.074 48.2266 144.602 48.0859 145.195 48.0859C145.383 48.0859 145.574 48.1016 145.77 48.1328C145.965 48.1562 146.125 48.1914 146.25 48.2383ZM151.148 51.0273V61H147.773V48.3203H150.938L151.148 51.0273ZM150.656 54.2148H149.742C149.742 53.2773 149.863 52.4336 150.105 51.6836C150.348 50.9258 150.688 50.2812 151.125 49.75C151.562 49.2109 152.082 48.8008 152.684 48.5195C153.293 48.2305 153.973 48.0859 154.723 48.0859C155.316 48.0859 155.859 48.1719 156.352 48.3438C156.844 48.5156 157.266 48.7891 157.617 49.1641C157.977 49.5391 158.25 50.0352 158.438 50.6523C158.633 51.2695 158.73 52.0234 158.73 52.9141V61H155.332V52.9023C155.332 52.3398 155.254 51.9023 155.098 51.5898C154.941 51.2773 154.711 51.0586 154.406 50.9336C154.109 50.8008 153.742 50.7344 153.305 50.7344C152.852 50.7344 152.457 50.8242 152.121 51.0039C151.793 51.1836 151.52 51.4336 151.301 51.7539C151.09 52.0664 150.93 52.4336 150.82 52.8555C150.711 53.2773 150.656 53.7305 150.656 54.2148ZM164.859 48.3203V61H161.473V48.3203H164.859ZM161.262 45.0156C161.262 44.5234 161.434 44.1172 161.777 43.7969C162.121 43.4766 162.582 43.3164 163.16 43.3164C163.73 43.3164 164.188 43.4766 164.531 43.7969C164.883 44.1172 165.059 44.5234 165.059 45.0156C165.059 45.5078 164.883 45.9141 164.531 46.2344C164.188 46.5547 163.73 46.7148 163.16 46.7148C162.582 46.7148 162.121 46.5547 161.777 46.2344C161.434 45.9141 161.262 45.5078 161.262 45.0156ZM173.859 48.3203V50.7109H166.477V48.3203H173.859ZM168.305 45.1914H171.68V57.1797C171.68 57.5469 171.727 57.8281 171.82 58.0234C171.922 58.2188 172.07 58.3555 172.266 58.4336C172.461 58.5039 172.707 58.5391 173.004 58.5391C173.215 58.5391 173.402 58.5312 173.566 58.5156C173.738 58.4922 173.883 58.4688 174 58.4453L174.012 60.9297C173.723 61.0234 173.41 61.0977 173.074 61.1523C172.738 61.207 172.367 61.2344 171.961 61.2344C171.219 61.2344 170.57 61.1133 170.016 60.8711C169.469 60.6211 169.047 60.2227 168.75 59.6758C168.453 59.1289 168.305 58.4102 168.305 57.5195V45.1914ZM183.281 57.9648V48.3203H186.656V61H183.48L183.281 57.9648ZM183.656 55.3633L184.652 55.3398C184.652 56.1836 184.555 56.9688 184.359 57.6953C184.164 58.4141 183.871 59.0391 183.48 59.5703C183.09 60.0938 182.598 60.5039 182.004 60.8008C181.41 61.0898 180.711 61.2344 179.906 61.2344C179.289 61.2344 178.719 61.1484 178.195 60.9766C177.68 60.7969 177.234 60.5195 176.859 60.1445C176.492 59.7617 176.203 59.2734 175.992 58.6797C175.789 58.0781 175.688 57.3555 175.688 56.5117V48.3203H179.062V56.5352C179.062 56.9102 179.105 57.2266 179.191 57.4844C179.285 57.7422 179.414 57.9531 179.578 58.1172C179.742 58.2812 179.934 58.3984 180.152 58.4688C180.379 58.5391 180.629 58.5742 180.902 58.5742C181.598 58.5742 182.145 58.4336 182.543 58.1523C182.949 57.8711 183.234 57.4883 183.398 57.0039C183.57 56.5117 183.656 55.9648 183.656 55.3633ZM192.609 51.0859V61H189.234V48.3203H192.41L192.609 51.0859ZM196.43 48.2383L196.371 51.3672C196.207 51.3438 196.008 51.3242 195.773 51.3086C195.547 51.2852 195.34 51.2734 195.152 51.2734C194.676 51.2734 194.262 51.3359 193.91 51.4609C193.566 51.5781 193.277 51.7539 193.043 51.9883C192.816 52.2227 192.645 52.5078 192.527 52.8438C192.418 53.1797 192.355 53.5625 192.34 53.9922L191.66 53.7812C191.66 52.9609 191.742 52.207 191.906 51.5195C192.07 50.8242 192.309 50.2188 192.621 49.7031C192.941 49.1875 193.332 48.7891 193.793 48.5078C194.254 48.2266 194.781 48.0859 195.375 48.0859C195.562 48.0859 195.754 48.1016 195.949 48.1328C196.145 48.1562 196.305 48.1914 196.43 48.2383ZM203.625 61.2344C202.641 61.2344 201.758 61.0781 200.977 60.7656C200.195 60.4453 199.531 60.0039 198.984 59.4414C198.445 58.8789 198.031 58.2266 197.742 57.4844C197.453 56.7344 197.309 55.9375 197.309 55.0938V54.625C197.309 53.6641 197.445 52.7852 197.719 51.9883C197.992 51.1914 198.383 50.5 198.891 49.9141C199.406 49.3281 200.031 48.8789 200.766 48.5664C201.5 48.2461 202.328 48.0859 203.25 48.0859C204.148 48.0859 204.945 48.2344 205.641 48.5312C206.336 48.8281 206.918 49.25 207.387 49.7969C207.863 50.3438 208.223 51 208.465 51.7656C208.707 52.5234 208.828 53.3672 208.828 54.2969V55.7031H198.75V53.4531H205.512V53.1953C205.512 52.7266 205.426 52.3086 205.254 51.9414C205.09 51.5664 204.84 51.2695 204.504 51.0508C204.168 50.832 203.738 50.7227 203.215 50.7227C202.77 50.7227 202.387 50.8203 202.066 51.0156C201.746 51.2109 201.484 51.4844 201.281 51.8359C201.086 52.1875 200.938 52.6016 200.836 53.0781C200.742 53.5469 200.695 54.0625 200.695 54.625V55.0938C200.695 55.6016 200.766 56.0703 200.906 56.5C201.055 56.9297 201.262 57.3008 201.527 57.6133C201.801 57.9258 202.129 58.168 202.512 58.3398C202.902 58.5117 203.344 58.5977 203.836 58.5977C204.445 58.5977 205.012 58.4805 205.535 58.2461C206.066 58.0039 206.523 57.6406 206.906 57.1562L208.547 58.9375C208.281 59.3203 207.918 59.6875 207.457 60.0391C207.004 60.3906 206.457 60.6797 205.816 60.9062C205.176 61.125 204.445 61.2344 203.625 61.2344ZM225.82 56.5352C225.82 56.2305 225.773 55.957 225.68 55.7148C225.594 55.4648 225.43 55.2383 225.188 55.0352C224.945 54.8242 224.605 54.6172 224.168 54.4141C223.73 54.2109 223.164 54 222.469 53.7812C221.695 53.5312 220.961 53.25 220.266 52.9375C219.578 52.625 218.969 52.2617 218.438 51.8477C217.914 51.4258 217.5 50.9375 217.195 50.3828C216.898 49.8281 216.75 49.1836 216.75 48.4492C216.75 47.7383 216.906 47.0938 217.219 46.5156C217.531 45.9297 217.969 45.4297 218.531 45.0156C219.094 44.5938 219.758 44.2695 220.523 44.043C221.297 43.8164 222.145 43.7031 223.066 43.7031C224.324 43.7031 225.422 43.9297 226.359 44.3828C227.297 44.8359 228.023 45.457 228.539 46.2461C229.062 47.0352 229.324 47.9375 229.324 48.9531H225.832C225.832 48.4531 225.727 48.0156 225.516 47.6406C225.312 47.2578 225 46.957 224.578 46.7383C224.164 46.5195 223.641 46.4102 223.008 46.4102C222.398 46.4102 221.891 46.5039 221.484 46.6914C221.078 46.8711 220.773 47.1172 220.57 47.4297C220.367 47.7344 220.266 48.0781 220.266 48.4609C220.266 48.75 220.336 49.0117 220.477 49.2461C220.625 49.4805 220.844 49.6992 221.133 49.9023C221.422 50.1055 221.777 50.2969 222.199 50.4766C222.621 50.6562 223.109 50.832 223.664 51.0039C224.594 51.2852 225.41 51.6016 226.113 51.9531C226.824 52.3047 227.418 52.6992 227.895 53.1367C228.371 53.5742 228.73 54.0703 228.973 54.625C229.215 55.1797 229.336 55.8086 229.336 56.5117C229.336 57.2539 229.191 57.918 228.902 58.5039C228.613 59.0898 228.195 59.5859 227.648 59.9922C227.102 60.3984 226.449 60.707 225.691 60.918C224.934 61.1289 224.086 61.2344 223.148 61.2344C222.305 61.2344 221.473 61.125 220.652 60.9062C219.832 60.6797 219.086 60.3398 218.414 59.8867C217.75 59.4336 217.219 58.8555 216.82 58.1523C216.422 57.4492 216.223 56.6172 216.223 55.6562H219.75C219.75 56.1875 219.832 56.6367 219.996 57.0039C220.16 57.3711 220.391 57.668 220.688 57.8945C220.992 58.1211 221.352 58.2852 221.766 58.3867C222.188 58.4883 222.648 58.5391 223.148 58.5391C223.758 58.5391 224.258 58.4531 224.648 58.2812C225.047 58.1094 225.34 57.8711 225.527 57.5664C225.723 57.2617 225.82 56.918 225.82 56.5352ZM237.727 48.3203V50.7109H230.344V48.3203H237.727ZM232.172 45.1914H235.547V57.1797C235.547 57.5469 235.594 57.8281 235.688 58.0234C235.789 58.2188 235.938 58.3555 236.133 58.4336C236.328 58.5039 236.574 58.5391 236.871 58.5391C237.082 58.5391 237.27 58.5312 237.434 58.5156C237.605 58.4922 237.75 58.4688 237.867 58.4453L237.879 60.9297C237.59 61.0234 237.277 61.0977 236.941 61.1523C236.605 61.207 236.234 61.2344 235.828 61.2344C235.086 61.2344 234.438 61.1133 233.883 60.8711C233.336 60.6211 232.914 60.2227 232.617 59.6758C232.32 59.1289 232.172 58.4102 232.172 57.5195V45.1914ZM238.805 54.7891V54.543C238.805 53.6133 238.938 52.7578 239.203 51.9766C239.469 51.1875 239.855 50.5039 240.363 49.9258C240.871 49.3477 241.496 48.8984 242.238 48.5781C242.98 48.25 243.832 48.0859 244.793 48.0859C245.754 48.0859 246.609 48.25 247.359 48.5781C248.109 48.8984 248.738 49.3477 249.246 49.9258C249.762 50.5039 250.152 51.1875 250.418 51.9766C250.684 52.7578 250.816 53.6133 250.816 54.543V54.7891C250.816 55.7109 250.684 56.5664 250.418 57.3555C250.152 58.1367 249.762 58.8203 249.246 59.4062C248.738 59.9844 248.113 60.4336 247.371 60.7539C246.629 61.0742 245.777 61.2344 244.816 61.2344C243.855 61.2344 243 61.0742 242.25 60.7539C241.508 60.4336 240.879 59.9844 240.363 59.4062C239.855 58.8203 239.469 58.1367 239.203 57.3555C238.938 56.5664 238.805 55.7109 238.805 54.7891ZM242.18 54.543V54.7891C242.18 55.3203 242.227 55.8164 242.32 56.2773C242.414 56.7383 242.562 57.1445 242.766 57.4961C242.977 57.8398 243.25 58.1094 243.586 58.3047C243.922 58.5 244.332 58.5977 244.816 58.5977C245.285 58.5977 245.688 58.5 246.023 58.3047C246.359 58.1094 246.629 57.8398 246.832 57.4961C247.035 57.1445 247.184 56.7383 247.277 56.2773C247.379 55.8164 247.43 55.3203 247.43 54.7891V54.543C247.43 54.0273 247.379 53.543 247.277 53.0898C247.184 52.6289 247.031 52.2227 246.82 51.8711C246.617 51.5117 246.348 51.2305 246.012 51.0273C245.676 50.8242 245.27 50.7227 244.793 50.7227C244.316 50.7227 243.91 50.8242 243.574 51.0273C243.246 51.2305 242.977 51.5117 242.766 51.8711C242.562 52.2227 242.414 52.6289 242.32 53.0898C242.227 53.543 242.18 54.0273 242.18 54.543ZM256.266 51.0859V61H252.891V48.3203H256.066L256.266 51.0859ZM260.086 48.2383L260.027 51.3672C259.863 51.3438 259.664 51.3242 259.43 51.3086C259.203 51.2852 258.996 51.2734 258.809 51.2734C258.332 51.2734 257.918 51.3359 257.566 51.4609C257.223 51.5781 256.934 51.7539 256.699 51.9883C256.473 52.2227 256.301 52.5078 256.184 52.8438C256.074 53.1797 256.012 53.5625 255.996 53.9922L255.316 53.7812C255.316 52.9609 255.398 52.207 255.562 51.5195C255.727 50.8242 255.965 50.2188 256.277 49.7031C256.598 49.1875 256.988 48.7891 257.449 48.5078C257.91 48.2266 258.438 48.0859 259.031 48.0859C259.219 48.0859 259.41 48.1016 259.605 48.1328C259.801 48.1562 259.961 48.1914 260.086 48.2383ZM267.281 61.2344C266.297 61.2344 265.414 61.0781 264.633 60.7656C263.852 60.4453 263.188 60.0039 262.641 59.4414C262.102 58.8789 261.688 58.2266 261.398 57.4844C261.109 56.7344 260.965 55.9375 260.965 55.0938V54.625C260.965 53.6641 261.102 52.7852 261.375 51.9883C261.648 51.1914 262.039 50.5 262.547 49.9141C263.062 49.3281 263.688 48.8789 264.422 48.5664C265.156 48.2461 265.984 48.0859 266.906 48.0859C267.805 48.0859 268.602 48.2344 269.297 48.5312C269.992 48.8281 270.574 49.25 271.043 49.7969C271.52 50.3438 271.879 51 272.121 51.7656C272.363 52.5234 272.484 53.3672 272.484 54.2969V55.7031H262.406V53.4531H269.168V53.1953C269.168 52.7266 269.082 52.3086 268.91 51.9414C268.746 51.5664 268.496 51.2695 268.16 51.0508C267.824 50.832 267.395 50.7227 266.871 50.7227C266.426 50.7227 266.043 50.8203 265.723 51.0156C265.402 51.2109 265.141 51.4844 264.938 51.8359C264.742 52.1875 264.594 52.6016 264.492 53.0781C264.398 53.5469 264.352 54.0625 264.352 54.625V55.0938C264.352 55.6016 264.422 56.0703 264.562 56.5C264.711 56.9297 264.918 57.3008 265.184 57.6133C265.457 57.9258 265.785 58.168 266.168 58.3398C266.559 58.5117 267 58.5977 267.492 58.5977C268.102 58.5977 268.668 58.4805 269.191 58.2461C269.723 58.0039 270.18 57.6406 270.562 57.1562L272.203 58.9375C271.938 59.3203 271.574 59.6875 271.113 60.0391C270.66 60.3906 270.113 60.6797 269.473 60.9062C268.832 61.125 268.102 61.2344 267.281 61.2344Z" fill="#888888"/>
<path d="M114.117 84.875H122.344V107.164C122.344 109.82 121.789 112.07 120.68 113.914C119.57 115.742 118.016 117.125 116.016 118.062C114.016 119 111.664 119.469 108.961 119.469C106.289 119.469 103.938 119 101.906 118.062C99.8906 117.125 98.3125 115.742 97.1719 113.914C96.0469 112.07 95.4844 109.82 95.4844 107.164V84.875H103.734V107.164C103.734 108.57 103.938 109.719 104.344 110.609C104.75 111.484 105.344 112.125 106.125 112.531C106.906 112.938 107.852 113.141 108.961 113.141C110.086 113.141 111.031 112.938 111.797 112.531C112.562 112.125 113.141 111.484 113.531 110.609C113.922 109.719 114.117 108.57 114.117 107.164V84.875ZM134.906 99.0547V119H127.008V93.6406H134.414L134.906 99.0547ZM133.969 105.453L132.117 105.5C132.117 103.562 132.352 101.836 132.82 100.32C133.289 98.7891 133.953 97.4922 134.812 96.4297C135.672 95.3672 136.695 94.5625 137.883 94.0156C139.086 93.4531 140.422 93.1719 141.891 93.1719C143.062 93.1719 144.133 93.3438 145.102 93.6875C146.086 94.0312 146.93 94.5859 147.633 95.3516C148.352 96.1172 148.898 97.1328 149.273 98.3984C149.664 99.6484 149.859 101.195 149.859 103.039V119H141.914V103.016C141.914 102 141.773 101.227 141.492 100.695C141.211 100.148 140.805 99.7734 140.273 99.5703C139.742 99.3672 139.094 99.2656 138.328 99.2656C137.516 99.2656 136.828 99.4219 136.266 99.7344C135.703 100.047 135.25 100.484 134.906 101.047C134.578 101.594 134.336 102.242 134.18 102.992C134.039 103.742 133.969 104.562 133.969 105.453ZM162.586 93.6406V119H154.664V93.6406H162.586ZM154.195 87.1016C154.195 85.9766 154.602 85.0547 155.414 84.3359C156.227 83.6172 157.281 83.2578 158.578 83.2578C159.875 83.2578 160.93 83.6172 161.742 84.3359C162.555 85.0547 162.961 85.9766 162.961 87.1016C162.961 88.2266 162.555 89.1484 161.742 89.8672C160.93 90.5859 159.875 90.9453 158.578 90.9453C157.281 90.9453 156.227 90.5859 155.414 89.8672C154.602 89.1484 154.195 88.2266 154.195 87.1016ZM180.82 93.6406V99.125H165.539V93.6406H180.82ZM168.75 87.3359H176.648V110.727C176.648 111.398 176.727 111.922 176.883 112.297C177.039 112.656 177.305 112.914 177.68 113.07C178.07 113.211 178.586 113.281 179.227 113.281C179.68 113.281 180.055 113.273 180.352 113.258C180.648 113.227 180.93 113.188 181.195 113.141V118.789C180.523 119.008 179.82 119.172 179.086 119.281C178.352 119.406 177.57 119.469 176.742 119.469C175.055 119.469 173.609 119.203 172.406 118.672C171.219 118.141 170.312 117.305 169.688 116.164C169.062 115.023 168.75 113.539 168.75 111.711V87.3359ZM211.406 84.875V119H203.18V84.875H211.406ZM221.672 84.875V91.2266H193.148V84.875H221.672ZM234.961 119.469C232.898 119.469 231.055 119.148 229.43 118.508C227.805 117.852 226.43 116.953 225.305 115.812C224.195 114.672 223.344 113.359 222.75 111.875C222.172 110.391 221.883 108.82 221.883 107.164V106.273C221.883 104.414 222.141 102.695 222.656 101.117C223.172 99.5234 223.938 98.1328 224.953 96.9453C225.969 95.7578 227.242 94.8359 228.773 94.1797C230.305 93.5078 232.086 93.1719 234.117 93.1719C235.914 93.1719 237.523 93.4609 238.945 94.0391C240.367 94.6172 241.57 95.4453 242.555 96.5234C243.555 97.6016 244.312 98.9062 244.828 100.438C245.359 101.969 245.625 103.688 245.625 105.594V108.805H224.906V103.859H237.914V103.25C237.93 102.406 237.781 101.688 237.469 101.094C237.172 100.5 236.734 100.047 236.156 99.7344C235.578 99.4219 234.875 99.2656 234.047 99.2656C233.188 99.2656 232.477 99.4531 231.914 99.8281C231.367 100.203 230.938 100.719 230.625 101.375C230.328 102.016 230.117 102.758 229.992 103.602C229.867 104.445 229.805 105.336 229.805 106.273V107.164C229.805 108.102 229.93 108.953 230.18 109.719C230.445 110.484 230.82 111.141 231.305 111.688C231.805 112.219 232.398 112.633 233.086 112.93C233.789 113.227 234.586 113.375 235.477 113.375C236.555 113.375 237.617 113.172 238.664 112.766C239.711 112.359 240.609 111.688 241.359 110.75L244.945 115.016C244.43 115.75 243.695 116.461 242.742 117.148C241.805 117.836 240.68 118.398 239.367 118.836C238.055 119.258 236.586 119.469 234.961 119.469ZM262.125 111.875C262.125 111.438 261.977 111.062 261.68 110.75C261.398 110.422 260.898 110.125 260.18 109.859C259.461 109.578 258.453 109.297 257.156 109.016C255.922 108.75 254.758 108.398 253.664 107.961C252.586 107.523 251.641 106.992 250.828 106.367C250.016 105.742 249.375 105 248.906 104.141C248.453 103.281 248.227 102.297 248.227 101.188C248.227 100.109 248.453 99.0938 248.906 98.1406C249.375 97.1719 250.055 96.3203 250.945 95.5859C251.852 94.8359 252.953 94.25 254.25 93.8281C255.547 93.3906 257.023 93.1719 258.68 93.1719C260.961 93.1719 262.93 93.5234 264.586 94.2266C266.242 94.9141 267.516 95.8828 268.406 97.1328C269.312 98.3672 269.766 99.7969 269.766 101.422H261.867C261.867 100.781 261.758 100.234 261.539 99.7812C261.336 99.3281 261 98.9844 260.531 98.75C260.062 98.5 259.438 98.375 258.656 98.375C258.109 98.375 257.609 98.4766 257.156 98.6797C256.719 98.8828 256.367 99.1641 256.102 99.5234C255.836 99.8828 255.703 100.305 255.703 100.789C255.703 101.133 255.781 101.445 255.938 101.727C256.109 101.992 256.367 102.242 256.711 102.477C257.055 102.695 257.492 102.898 258.023 103.086C258.555 103.258 259.195 103.414 259.945 103.555C261.648 103.867 263.242 104.312 264.727 104.891C266.211 105.469 267.414 106.289 268.336 107.352C269.273 108.414 269.742 109.844 269.742 111.641C269.742 112.766 269.484 113.805 268.969 114.758C268.453 115.695 267.711 116.523 266.742 117.242C265.773 117.945 264.609 118.492 263.25 118.883C261.891 119.273 260.359 119.469 258.656 119.469C256.234 119.469 254.188 119.039 252.516 118.18C250.844 117.305 249.578 116.211 248.719 114.898C247.875 113.57 247.453 112.227 247.453 110.867H254.812C254.844 111.648 255.031 112.289 255.375 112.789C255.734 113.289 256.211 113.656 256.805 113.891C257.398 114.125 258.086 114.242 258.867 114.242C259.586 114.242 260.18 114.141 260.648 113.938C261.133 113.734 261.5 113.461 261.75 113.117C262 112.758 262.125 112.344 262.125 111.875ZM286.805 93.6406V99.125H271.523V93.6406H286.805ZM274.734 87.3359H282.633V110.727C282.633 111.398 282.711 111.922 282.867 112.297C283.023 112.656 283.289 112.914 283.664 113.07C284.055 113.211 284.57 113.281 285.211 113.281C285.664 113.281 286.039 113.273 286.336 113.258C286.633 113.227 286.914 113.188 287.18 113.141V118.789C286.508 119.008 285.805 119.172 285.07 119.281C284.336 119.406 283.555 119.469 282.727 119.469C281.039 119.469 279.594 119.203 278.391 118.672C277.203 118.141 276.297 117.305 275.672 116.164C275.047 115.023 274.734 113.539 274.734 111.711V87.3359ZM298.289 93.6406V119H290.367V93.6406H298.289ZM289.898 87.1016C289.898 85.9766 290.305 85.0547 291.117 84.3359C291.93 83.6172 292.984 83.2578 294.281 83.2578C295.578 83.2578 296.633 83.6172 297.445 84.3359C298.258 85.0547 298.664 85.9766 298.664 87.1016C298.664 88.2266 298.258 89.1484 297.445 89.8672C296.633 90.5859 295.578 90.9453 294.281 90.9453C292.984 90.9453 291.93 90.5859 291.117 89.8672C290.305 89.1484 289.898 88.2266 289.898 87.1016ZM310.922 99.0547V119H303.023V93.6406H310.43L310.922 99.0547ZM309.984 105.453L308.133 105.5C308.133 103.562 308.367 101.836 308.836 100.32C309.305 98.7891 309.969 97.4922 310.828 96.4297C311.688 95.3672 312.711 94.5625 313.898 94.0156C315.102 93.4531 316.438 93.1719 317.906 93.1719C319.078 93.1719 320.148 93.3438 321.117 93.6875C322.102 94.0312 322.945 94.5859 323.648 95.3516C324.367 96.1172 324.914 97.1328 325.289 98.3984C325.68 99.6484 325.875 101.195 325.875 103.039V119H317.93V103.016C317.93 102 317.789 101.227 317.508 100.695C317.227 100.148 316.82 99.7734 316.289 99.5703C315.758 99.3672 315.109 99.2656 314.344 99.2656C313.531 99.2656 312.844 99.4219 312.281 99.7344C311.719 100.047 311.266 100.484 310.922 101.047C310.594 101.594 310.352 102.242 310.195 102.992C310.055 103.742 309.984 104.562 309.984 105.453ZM346.195 93.6406H353.367V118.016C353.367 120.359 352.828 122.344 351.75 123.969C350.672 125.609 349.164 126.852 347.227 127.695C345.305 128.555 343.055 128.984 340.477 128.984C339.336 128.984 338.172 128.836 336.984 128.539C335.797 128.258 334.688 127.836 333.656 127.273C332.625 126.711 331.758 126.016 331.055 125.188L334.359 120.547C335 121.266 335.805 121.875 336.773 122.375C337.742 122.891 338.883 123.148 340.195 123.148C341.336 123.148 342.289 122.945 343.055 122.539C343.836 122.133 344.43 121.539 344.836 120.758C345.242 119.992 345.445 119.062 345.445 117.969V99.6406L346.195 93.6406ZM329.344 106.625V106.133C329.344 104.211 329.578 102.461 330.047 100.883C330.531 99.2891 331.219 97.9219 332.109 96.7812C333.016 95.625 334.109 94.7344 335.391 94.1094C336.672 93.4844 338.117 93.1719 339.727 93.1719C341.461 93.1719 342.883 93.5078 343.992 94.1797C345.117 94.8359 346.016 95.7578 346.688 96.9453C347.375 98.1328 347.906 99.5234 348.281 101.117C348.672 102.695 349 104.398 349.266 106.227V106.812C349 108.531 348.633 110.156 348.164 111.688C347.711 113.203 347.117 114.547 346.383 115.719C345.648 116.891 344.727 117.812 343.617 118.484C342.523 119.141 341.211 119.469 339.68 119.469C338.086 119.469 336.648 119.148 335.367 118.508C334.102 117.867 333.016 116.969 332.109 115.812C331.219 114.656 330.531 113.297 330.047 111.734C329.578 110.172 329.344 108.469 329.344 106.625ZM337.242 106.133V106.625C337.242 107.578 337.328 108.461 337.5 109.273C337.688 110.086 337.969 110.805 338.344 111.43C338.719 112.039 339.18 112.516 339.727 112.859C340.289 113.203 340.945 113.375 341.695 113.375C342.836 113.375 343.758 113.133 344.461 112.648C345.164 112.164 345.672 111.477 345.984 110.586C346.297 109.695 346.43 108.648 346.383 107.445V105.594C346.414 104.562 346.344 103.656 346.172 102.875C346 102.078 345.727 101.414 345.352 100.883C344.992 100.352 344.508 99.9531 343.898 99.6875C343.305 99.4062 342.586 99.2656 341.742 99.2656C341.008 99.2656 340.359 99.4375 339.797 99.7812C339.234 100.125 338.766 100.609 338.391 101.234C338.016 101.844 337.727 102.57 337.523 103.414C337.336 104.242 337.242 105.148 337.242 106.133Z" fill="black"/>
<path d="M1134 0H1348C1356.28 0 1363 6.71573 1363 15V148C1363 156.284 1356.28 163 1348 163H1134V0Z" fill="#F8BC93"/>
<path d="M1210.62 43.625H1286.38V119.375H1210.62V43.625Z" fill="white" fill-opacity="0.01"/>
<path d="M1276.91 72.0312V105.172C1276.91 107.787 1274.79 109.906 1272.17 109.906H1224.83C1222.21 109.906 1220.09 107.787 1220.09 105.172V57.8281C1220.09 55.2134 1222.21 53.0938 1224.83 53.0938H1261.12" stroke="white" stroke-width="7.24" stroke-linecap="round" stroke-linejoin="round"/>
<path d="M1232.72 75.1875L1248.5 87.8125L1276.91 53.0938" stroke="white" stroke-width="7.24" stroke-linecap="round" stroke-linejoin="round"/>
</svg>
